<?xml version="1.0" encoding="UTF-8" standalone="no"?>
<svg width="24px" height="24px" viewBox="0 0 24 24" version="1.1" xmlns="http://www.w3.org/2000/svg" xmlns:xlink="http://www.w3.org/1999/xlink">
    <!-- Generator: sketchtool 48.1 (47250) - http://www.bohemiancoding.com/sketch -->
    <title>A1C78673-3851-4888-BBCF-4DC319D930F5</title>
    <desc>Created with sketchtool.</desc>
    <defs></defs>
    <g id="header" stroke="none" stroke-width="1" fill="none" fill-rule="evenodd" transform="translate(-310.000000, -11.000000)">
        <g fill="#4CA29C" fill-rule="nonzero" id="basket-icon">
            <path d="M317.2,30.2 C315.88,30.2 314.8,31.28 314.8,32.6 C314.8,33.92 315.88,35 317.2,35 C318.52,35 319.6,33.92 319.6,32.6 C319.6,31.28 318.52,30.2 317.2,30.2 Z M310,11 L310,13.4 L312.4,13.4 L316.72,22.52 L315.04,25.4 C314.92,25.76 314.8,26.24 314.8,26.6 C314.8,27.92 315.88,29 317.2,29 L331.6,29 L331.6,26.6 L317.68,26.6 C317.56,26.6 317.44,26.48 317.44,26.36 L317.44,26.2399529 L318.52,24.1999529 L327.4,24.1999529 C328.36,24.1999529 329.08,23.7199529 329.44,22.9999529 L333.76,15.2 C334,14.96 334,14.84 334,14.6 C334,13.88 333.52,13.4 332.8,13.4 L315.04,13.4 L313.96,11 L310,11 Z M329.2,30.2 C327.88,30.2 326.8,31.28 326.8,32.6 C326.8,33.92 327.88,35 329.2,35 C330.52,35 331.6,33.92 331.6,32.6 C331.6,31.28 330.52,30.2 329.2,30.2 Z"></path>
        </g>
    </g>
</svg>