<svg id="XMLID_92_" xmlns="http://www.w3.org/2000/svg" width="209.621" height="24.59" viewBox="0 0 209.621 24.59">
    <path id="XMLID_93_" d="M24.112,31.821v4.421H5.7V12.5H23.688v4.421H11.151v5.148H22.174v4.3H11.151v5.512H24.112Z"
          transform="translate(-5.7 -12.076)" fill="#242424"/>
    <path id="XMLID_95_"
          d="M52.74,35.642a12.005,12.005,0,0,1-4.24-2l1.878-4.119a13.626,13.626,0,0,0,7.874,2.483,7.072,7.072,0,0,0,3.452-.666,2.221,2.221,0,0,0,1.151-1.878,1.811,1.811,0,0,0-.666-1.393,5.6,5.6,0,0,0-1.7-.908,22.282,22.282,0,0,0-2.786-.727,37.924,37.924,0,0,1-4.421-1.272A7.728,7.728,0,0,1,50.317,23.1a5.556,5.556,0,0,1-1.211-3.816,6.4,6.4,0,0,1,1.151-3.755,7.291,7.291,0,0,1,3.392-2.665A13.6,13.6,0,0,1,59.16,11.9a17.685,17.685,0,0,1,4.421.545A13.627,13.627,0,0,1,67.4,14.02L65.7,18.2a13.047,13.047,0,0,0-6.6-1.878,6.272,6.272,0,0,0-3.392.727,2.28,2.28,0,0,0-1.09,2,1.979,1.979,0,0,0,1.272,1.817,16.843,16.843,0,0,0,3.876,1.151,37.923,37.923,0,0,1,4.421,1.272,7.125,7.125,0,0,1,2.968,2.059A5.3,5.3,0,0,1,68.366,29.1,6.213,6.213,0,0,1,67.215,32.8a7.611,7.611,0,0,1-3.392,2.665,13.8,13.8,0,0,1-5.512.969A18.5,18.5,0,0,1,52.74,35.642Z"
          transform="translate(-22.578 -11.839)" fill="#242424"/>
    <path id="XMLID_97_"
          d="M110.208,13.53a8.3,8.3,0,0,1,3.573,2.968,8.2,8.2,0,0,1,1.272,4.6,8,8,0,0,1-1.272,4.542,7.841,7.841,0,0,1-3.573,2.968,13.98,13.98,0,0,1-5.512,1.03H99.912v6.541H94.4V12.5h10.3A12.621,12.621,0,0,1,110.208,13.53Zm-2,10.6a3.8,3.8,0,0,0,1.272-3.028,3.847,3.847,0,0,0-1.272-3.089,5.668,5.668,0,0,0-3.755-1.09H99.972v8.237h4.482A5.35,5.35,0,0,0,108.209,24.129Z"
          transform="translate(-40.678 -12.076)" fill="#242424"/>
    <path id="XMLID_100_"
          d="M151.176,31.115H140.153l-2.12,5.088H132.4L143,12.4h5.451l10.66,23.8h-5.754Zm-1.7-4.179-3.755-9.085-3.755,9.085Z"
          transform="translate(-55.662 -12.037)" fill="#242424"/>
    <path id="XMLID_103_"
          d="M202.042,36.242l-4.6-6.6h-5.027v6.6H186.9V12.5h10.3a13.979,13.979,0,0,1,5.512,1.03,8.3,8.3,0,0,1,3.573,2.968,8.2,8.2,0,0,1,1.272,4.6,8,8,0,0,1-1.272,4.542,8.476,8.476,0,0,1-3.634,2.968l5.33,7.631h-5.936Zm-1.393-18.231a5.668,5.668,0,0,0-3.755-1.09h-4.482v8.3h4.482a5.668,5.668,0,0,0,3.755-1.09A3.8,3.8,0,0,0,201.92,21.1,3.847,3.847,0,0,0,200.649,18.012Z"
          transform="translate(-77.154 -12.076)" fill="#242424"/>
    <path id="XMLID_106_" d="M237.531,16.982H229.9V12.5h20.714v4.482h-7.631V36.3h-5.512V16.982Z"
          transform="translate(-94.11 -12.076)" fill="#242424"/>
    <path id="XMLID_108_"
          d="M275.159,34.815a12.137,12.137,0,0,1-4.664-4.421,11.84,11.84,0,0,1-1.7-6.3,11.693,11.693,0,0,1,1.7-6.3,12.136,12.136,0,0,1,4.664-4.421,13.537,13.537,0,0,1,6.662-1.575,14.23,14.23,0,0,1,6.662,1.575,12.137,12.137,0,0,1,4.664,4.421,11.84,11.84,0,0,1,1.7,6.3,11.693,11.693,0,0,1-1.7,6.3,12.137,12.137,0,0,1-4.664,4.421,13.537,13.537,0,0,1-6.662,1.575A14.054,14.054,0,0,1,275.159,34.815Zm10.478-4.058a7.2,7.2,0,0,0,2.665-2.725,7.748,7.748,0,0,0,.969-3.937,7.748,7.748,0,0,0-.969-3.937,7.2,7.2,0,0,0-2.665-2.725,8,8,0,0,0-7.631,0,7.2,7.2,0,0,0-2.665,2.725,7.748,7.748,0,0,0-.969,3.937,7.748,7.748,0,0,0,.969,3.937,7.2,7.2,0,0,0,2.665,2.725,7.455,7.455,0,0,0,3.816.969A8.108,8.108,0,0,0,285.637,30.757Z"
          transform="translate(-109.45 -11.8)" fill="#242424"/>
    <path id="XMLID_111_"
          d="M323.24,35.642a12,12,0,0,1-4.24-2l1.878-4.119a13.626,13.626,0,0,0,7.874,2.483,7.072,7.072,0,0,0,3.452-.666,2.221,2.221,0,0,0,1.151-1.878,1.811,1.811,0,0,0-.666-1.393,5.6,5.6,0,0,0-1.7-.908,22.281,22.281,0,0,0-2.786-.727,37.93,37.93,0,0,1-4.421-1.272,7.728,7.728,0,0,1-2.968-2.059,5.556,5.556,0,0,1-1.211-3.816,6.4,6.4,0,0,1,1.151-3.755,7.291,7.291,0,0,1,3.392-2.665,13.6,13.6,0,0,1,5.512-.969,17.685,17.685,0,0,1,4.421.545A13.627,13.627,0,0,1,337.9,14.02L336.2,18.2a13.047,13.047,0,0,0-6.6-1.878,6.273,6.273,0,0,0-3.392.727,2.28,2.28,0,0,0-1.09,2,1.979,1.979,0,0,0,1.272,1.817,16.843,16.843,0,0,0,3.876,1.151,37.924,37.924,0,0,1,4.421,1.272,7.125,7.125,0,0,1,2.968,2.059,5.3,5.3,0,0,1,1.211,3.755,6.214,6.214,0,0,1-1.151,3.695,7.612,7.612,0,0,1-3.392,2.665,13.8,13.8,0,0,1-5.512.969A18.5,18.5,0,0,1,323.24,35.642Z"
          transform="translate(-129.245 -11.839)" fill="#242424"/>
</svg>
