<?xml version="1.0" encoding="utf-8"?>
<!-- Generator: Adobe Illustrator 19.0.0, SVG Export Plug-In . SVG Version: 6.00 Build 0)  -->
<svg version="1.1" id="Layer_1" xmlns="http://www.w3.org/2000/svg" xmlns:xlink="http://www.w3.org/1999/xlink" x="0px" y="0px"
	 viewBox="0 0 357.7 54" style="enable-background:new 0 0 357.7 54;" xml:space="preserve">
<style type="text/css">
	.st0{fill:#16A79C;}
</style>
<g id="XMLID_133_">
	<polygon id="XMLID_142_" class="st0" points="139.1,15 145.3,2 137.4,2 136.6,15 	"/>
	<g id="XMLID_92_">
		<path id="XMLID_93_" d="M36.1,44.4v7.3H5.7V12.5h29.7v7.3H14.7v8.5h18.2v7.1H14.7v9.1H36.1z"/>
		<path id="XMLID_95_" d="M55.5,51.1c-2.9-0.8-5.2-1.9-7-3.3l3.1-6.8c1.7,1.2,3.7,2.2,6,3c2.3,0.7,4.6,1.1,7,1.1
			c2.6,0,4.5-0.4,5.7-1.1c1.2-0.8,1.9-1.8,1.9-3.1c0-0.9-0.4-1.7-1.1-2.3c-0.7-0.6-1.7-1.1-2.8-1.5c-1.1-0.4-2.7-0.8-4.6-1.2
			c-3-0.7-5.4-1.4-7.3-2.1c-1.9-0.7-3.5-1.9-4.9-3.4c-1.4-1.6-2-3.7-2-6.3c0-2.3,0.6-4.3,1.9-6.2c1.2-1.9,3.1-3.3,5.6-4.4
			c2.5-1.1,5.5-1.6,9.1-1.6c2.5,0,5,0.3,7.3,0.9c2.4,0.6,4.5,1.5,6.3,2.6l-2.8,6.9c-3.6-2.1-7.3-3.1-10.9-3.1
			c-2.5,0-4.4,0.4-5.6,1.2c-1.2,0.8-1.8,1.9-1.8,3.3c0,1.3,0.7,2.3,2.1,3c1.4,0.7,3.5,1.3,6.4,1.9c3,0.7,5.4,1.4,7.3,2.1
			c1.9,0.7,3.5,1.8,4.9,3.4c1.4,1.5,2,3.6,2,6.2c0,2.2-0.6,4.3-1.9,6.1c-1.3,1.9-3.1,3.3-5.6,4.4c-2.5,1.1-5.6,1.6-9.1,1.6
			C61.4,52.4,58.4,52,55.5,51.1z"/>
		<path id="XMLID_97_" d="M120.5,14.2c2.6,1.2,4.5,2.8,5.9,4.9c1.4,2.1,2.1,4.7,2.1,7.6c0,2.9-0.7,5.4-2.1,7.5
			c-1.4,2.2-3.4,3.8-5.9,4.9c-2.6,1.1-5.6,1.7-9.1,1.7h-7.9v10.8h-9.1V12.5h17C115,12.5,118,13,120.5,14.2z M117.2,31.7
			c1.4-1.2,2.1-2.9,2.1-5c0-2.2-0.7-3.9-2.1-5.1c-1.4-1.2-3.5-1.8-6.2-1.8h-7.4v13.6h7.4C113.7,33.5,115.8,32.9,117.2,31.7z"/>
		<path id="XMLID_100_" d="M163.4,43.3h-18.2l-3.5,8.4h-9.3l17.5-39.3h9l17.6,39.3h-9.5L163.4,43.3z M160.6,36.4l-6.2-15l-6.2,15
			H160.6z"/>
		<path id="XMLID_103_" d="M211.9,51.7l-7.6-10.9h-0.4H196v10.9h-9.1V12.5h17c3.5,0,6.5,0.6,9.1,1.7c2.6,1.2,4.5,2.8,5.9,4.9
			c1.4,2.1,2.1,4.7,2.1,7.6s-0.7,5.4-2.1,7.5c-1.4,2.1-3.4,3.7-6,4.9l8.8,12.6H211.9z M209.6,21.6c-1.4-1.2-3.5-1.8-6.2-1.8H196
			v13.7h7.4c2.7,0,4.8-0.6,6.2-1.8c1.4-1.2,2.1-2.9,2.1-5C211.7,24.5,211,22.8,209.6,21.6z"/>
		<path id="XMLID_106_" d="M242.5,19.9h-12.6v-7.4h34.2v7.4h-12.6v31.9h-9.1V19.9z"/>
		<path id="XMLID_108_" d="M279.3,49.8c-3.3-1.8-5.8-4.2-7.7-7.3c-1.9-3.1-2.8-6.6-2.8-10.4c0-3.9,0.9-7.3,2.8-10.4
			c1.9-3.1,4.4-5.5,7.7-7.3c3.3-1.8,6.9-2.6,11-2.6c4.1,0,7.7,0.9,11,2.6c3.3,1.8,5.8,4.2,7.7,7.3c1.9,3.1,2.8,6.6,2.8,10.4
			c0,3.9-0.9,7.3-2.8,10.4c-1.9,3.1-4.4,5.5-7.7,7.3c-3.3,1.8-6.9,2.6-11,2.6C286.2,52.4,282.5,51.5,279.3,49.8z M296.6,43.1
			c1.9-1.1,3.3-2.6,4.4-4.5c1.1-1.9,1.6-4.1,1.6-6.5c0-2.4-0.5-4.6-1.6-6.5c-1.1-1.9-2.5-3.4-4.4-4.5c-1.9-1.1-4-1.6-6.3-1.6
			c-2.3,0-4.4,0.5-6.3,1.6c-1.9,1.1-3.3,2.6-4.4,4.5c-1.1,1.9-1.6,4.1-1.6,6.5c0,2.4,0.5,4.6,1.6,6.5c1.1,1.9,2.5,3.4,4.4,4.5
			c1.9,1.1,4,1.6,6.3,1.6C292.6,44.7,294.7,44.1,296.6,43.1z"/>
		<path id="XMLID_111_" d="M326,51.1c-2.9-0.8-5.2-1.9-7-3.3l3.1-6.8c1.7,1.2,3.7,2.2,6,3c2.3,0.7,4.6,1.1,7,1.1
			c2.6,0,4.5-0.4,5.7-1.1c1.2-0.8,1.9-1.8,1.9-3.1c0-0.9-0.4-1.7-1.1-2.3c-0.7-0.6-1.7-1.1-2.8-1.5c-1.1-0.4-2.7-0.8-4.6-1.2
			c-3-0.7-5.4-1.4-7.3-2.1c-1.9-0.7-3.5-1.9-4.9-3.4c-1.4-1.6-2-3.7-2-6.3c0-2.3,0.6-4.3,1.9-6.2c1.2-1.9,3.1-3.3,5.6-4.4
			c2.5-1.1,5.5-1.6,9.1-1.6c2.5,0,5,0.3,7.3,0.9c2.4,0.6,4.5,1.5,6.3,2.6l-2.8,6.9c-3.6-2.1-7.3-3.1-10.9-3.1
			c-2.5,0-4.4,0.4-5.6,1.2c-1.2,0.8-1.8,1.9-1.8,3.3c0,1.3,0.7,2.3,2.1,3c1.4,0.7,3.5,1.3,6.4,1.9c3,0.7,5.4,1.4,7.3,2.1
			c1.9,0.7,3.5,1.8,4.9,3.4c1.4,1.5,2,3.6,2,6.2c0,2.2-0.6,4.3-1.9,6.1c-1.3,1.9-3.1,3.3-5.6,4.4c-2.5,1.1-5.6,1.6-9.1,1.6
			C331.9,52.4,328.9,52,326,51.1z"/>
	</g>
</g>
</svg>
