<svg display="none" xmlns="http://www.w3.org/2000/svg">
    <symbol id="map_pin" viewBox="0 0 20 24">
        <g transform="translate(-2)">
            <path class="a" d="M21,10c0,7-9,13-9,13S3,17,3,10a9,9,0,1,1,18,0Z"/>
            <circle class="a" cx="3" cy="3" r="3" transform="translate(9 7)"/>
        </g>
    </symbol>

    <symbol id="phone-icon" viewBox="0 0 21.89 21.93">
        <path class="a"
              d="M22,16.92v3a2,2,0,0,1-2.18,2,19.79,19.79,0,0,1-8.63-3.07,19.5,19.5,0,0,1-6-6A19.79,19.79,0,0,1,2.12,4.18,2,2,0,0,1,4.11,2h3a2,2,0,0,1,2,1.72,12.84,12.84,0,0,0,.7,2.81,2,2,0,0,1-.45,2.11L8.09,9.91a16,16,0,0,0,6,6l1.27-1.27a2,2,0,0,1,2.11-.45,12.84,12.84,0,0,0,2.81.7A2,2,0,0,1,22,16.92Z"
              transform="translate(-1.111 -1)"/>
    </symbol>

    <symbol id="search-icon" viewBox="0 0 20.16 20.414">
        <g transform="translate(0.745 1)">
            <circle class="a" cx="8" cy="8" r="8" transform="translate(0.255)"/>
            <line class="a" x1="4.35" y1="4.35" transform="translate(13.65 13.65)"/>
        </g>
    </symbol>

    <symbol id="user-icon" viewBox="0 0 29.314 33">
        <g transform="translate(1.5 1.897)">
            <path class="a"
                  d="M30.314,24.868V21.578A6.578,6.578,0,0,0,23.735,15H10.578A6.578,6.578,0,0,0,4,21.578v3.289"
                  transform="translate(-4 4.735)"/>
            <circle
                    class="a" cx="7" cy="7" r="7" transform="translate(5.72 -0.397)"/>
        </g>
    </symbol>

    <symbol id="favorites-icon" viewBox="0 0 36.5 32.219">

        <path class="a"
              d="M32.466,5.581A8.814,8.814,0,0,0,20,5.581l-1.7,1.7-1.7-1.7A8.817,8.817,0,0,0,4.131,18.05l1.7,1.7L18.3,32.217,30.767,19.749l1.7-1.7a8.814,8.814,0,0,0,0-12.468Z"
              transform="translate(-0.049 -1.498)"/>
    </symbol>

    <symbol id="basket-icon" viewBox="0 0 34.121 32.603">
        <g transform="translate(1.5 1.5)">
            <ellipse class="a" cx="2" cy="1.5"
                     rx="2" ry="1.5"
                     transform="translate(9.121 26.603)"/>
            <ellipse
                    class="a" cx="2" cy="1.5" rx="2" ry="1.5" transform="translate(24.121 26.603)"/>
            <path
                    class="a"
                    d="M1,1H6.658L10.45,19.942a2.829,2.829,0,0,0,2.829,2.278h13.75a2.829,2.829,0,0,0,2.829-2.278L32.121,8.073H8.073"
                    transform="translate(-1 -1)"/>
        </g>
    </symbol>

    <symbol id="compare-icon" viewBox="0 0 21.509 21.509">
        <path d="M.9,4.257H3.348a3.341,3.341,0,0,0,6.448,0H20.612a.9.9,0,0,0,0-1.792H9.8a3.341,3.341,0,0,0-6.448,0H.9a.9.9,0,1,0,0,1.792ZM6.572,1.792A1.568,1.568,0,1,1,5,3.361,1.568,1.568,0,0,1,6.572,1.792Z"
              transform="translate(0 0)"/>
        <path d="M20.612,10.714H18.16a3.34,3.34,0,0,0-6.447,0H.9a.9.9,0,0,0,0,1.792H11.713a3.34,3.34,0,0,0,6.447,0h2.452a.9.9,0,0,0,0-1.792Zm-5.676,2.465a1.568,1.568,0,1,1,1.568-1.568,1.568,1.568,0,0,1-1.568,1.568Z"
              transform="translate(0 -0.856)"/>
        <path d="M20.612,18.964H9.8a3.341,3.341,0,0,0-6.448,0H.9a.9.9,0,1,0,0,1.792H3.348a3.341,3.341,0,0,0,6.448,0H20.612a.9.9,0,1,0,0-1.792ZM6.572,21.429A1.568,1.568,0,1,1,8.14,19.861,1.568,1.568,0,0,1,6.572,21.429Z"
              transform="translate(0 -1.713)"/>
    </symbol>

    <symbol id="message" viewBox="0 0 15.341 15.341">
        <path
                d="M16.341,11.894a1.482,1.482,0,0,1-1.482,1.482H5.965L3,16.341V4.482A1.482,1.482,0,0,1,4.482,3H14.859a1.482,1.482,0,0,1,1.482,1.482Z"
                transform="translate(-2 -2)" fill="none" stroke-linecap="round" stroke-linejoin="round"/>
    </symbol>

    <symbol id="arrow-bottom" viewBox="0 0 9.609 5.512">
        <path d="M510.429,25.478l4.451,4.451,4.451-4.451" transform="translate(-510.075 -25.124)" fill="none"/>
    </symbol>

    <symbol id="close-icon" viewBox="0 0 10.828 10.828">
        <g transform="translate(-4.779 -4.779)">
            <line x1="8" y2="8" transform="translate(6.193 6.193)" stroke-linecap="round"
                  stroke-linejoin="round"/>
            <line x2="8" y2="8" transform="translate(6.193 6.193)" stroke-linecap="round"
                  stroke-linejoin="round"/>
        </g>
    </symbol>

    <symbol id="arrow-left" viewBox="0 0 6.873 11.745">
        <path d="M0,4.458,4.458,0,8.917,4.458"
              transform="translate(1 10.331) rotate(-90)" stroke-linecap="round"
              stroke-linejoin="round"/>
    </symbol>

    <symbol id="pagination-right" viewBox="0 0 37 15.414">
        <g transform="translate(0.5 0.707)">
            <line x2="36" transform="translate(0 7)"/>
            <path d="M5,19l7-7L5,5" transform="translate(24 -5)"/>
        </g>
    </symbol>

    <symbol id="pagination-left" viewBox="0 0 37 15.414">
        <g transform="translate(-4.5 -4.293)">
            <line x1="36" transform="translate(5 12)"/>
            <path d="M12,19,5,12l7-7"/>
        </g>
    </symbol>

    <symbol id="info-icon" viewBox="0 0 45 45">
        <g transform="translate(1.5 1.5)">
            <circle cx="21" cy="21" r="21"/>
            <line y1="9" transform="translate(21 21)"/>
            <line x2="0.021" transform="translate(20.708 12.657)"/>
        </g>
    </symbol>

    <symbol id="vk" viewBox="0 0 49.548 29.14">
        <g transform="translate(1 -116.749)">
            <path d="M47.316,142.259a3.26,3.26,0,0,0-.161-.31,24.653,24.653,0,0,0-4.73-5.474l-.049-.05-.025-.024-.025-.025H42.3q-1.585-1.511-2.006-2.031a1.907,1.907,0,0,1-.347-2.006,18.7,18.7,0,0,1,2.229-3.244q1.016-1.313,1.61-2.105,4.285-5.7,3.715-7.281l-.148-.247a1.449,1.449,0,0,0-.767-.409A3.9,3.9,0,0,0,45,118.991l-7.133.049a.925.925,0,0,0-.5.012l-.322.075-.124.062-.1.075a1.1,1.1,0,0,0-.273.26,1.7,1.7,0,0,0-.247.433,40.441,40.441,0,0,1-2.65,5.572q-.916,1.536-1.684,2.663a12.811,12.811,0,0,1-1.287,1.659,8.984,8.984,0,0,1-.941.854q-.421.322-.644.273c-.149-.033-.289-.066-.422-.1a1.647,1.647,0,0,1-.557-.607,2.717,2.717,0,0,1-.285-.966q-.074-.582-.087-1t.013-1.189q.026-.768.025-1.04,0-.941.037-2.043t.062-1.746q.025-.644.025-1.362a5.723,5.723,0,0,0-.087-1.127,3.855,3.855,0,0,0-.259-.793,1.335,1.335,0,0,0-.508-.594,2.862,2.862,0,0,0-.83-.334,16.48,16.48,0,0,0-3.344-.322q-4.606-.049-5.919.595a3.336,3.336,0,0,0-.941.743q-.446.545-.124.594a3.036,3.036,0,0,1,2.105,1.065l.149.3a4.738,4.738,0,0,1,.347,1.139,11.494,11.494,0,0,1,.223,1.808,19.279,19.279,0,0,1,0,3.1q-.124,1.288-.235,2.006a4.017,4.017,0,0,1-.334,1.164,4.911,4.911,0,0,1-.3.545.426.426,0,0,1-.124.124,1.855,1.855,0,0,1-.669.124,1.57,1.57,0,0,1-.842-.347,5.942,5.942,0,0,1-1.028-.954,12.747,12.747,0,0,1-1.2-1.7q-.668-1.09-1.387-2.576l-.4-.718q-.371-.693-1.015-2.018t-1.139-2.564a1.633,1.633,0,0,0-.594-.792l-.124-.075a1.7,1.7,0,0,0-.4-.211,2.628,2.628,0,0,0-.57-.161l-6.786.049a1.725,1.725,0,0,0-1.412.471l-.1.148a.8.8,0,0,0-.075.4,1.972,1.972,0,0,0,.149.669q1.486,3.492,3.232,6.737t3.034,5.225q1.288,1.982,2.625,3.74t1.771,2.254q.434.5.681.743l.619.594a14.691,14.691,0,0,0,1.746,1.424,29.783,29.783,0,0,0,2.551,1.635,13.839,13.839,0,0,0,3.257,1.312,11.262,11.262,0,0,0,3.616.409h2.848a1.973,1.973,0,0,0,1.313-.545l.1-.124a1.642,1.642,0,0,0,.186-.458,2.516,2.516,0,0,0,.087-.681,8.161,8.161,0,0,1,.161-1.919,5.046,5.046,0,0,1,.422-1.288,3.166,3.166,0,0,1,.532-.73,2.153,2.153,0,0,1,.422-.359,1.615,1.615,0,0,1,.2-.087,1.572,1.572,0,0,1,1.4.384,8.22,8.22,0,0,1,1.511,1.437q.706.855,1.7,1.919a11.655,11.655,0,0,0,1.734,1.585l.5.3a6.031,6.031,0,0,0,1.288.545,2.776,2.776,0,0,0,1.387.124l6.34-.1a2.873,2.873,0,0,0,1.461-.31,1.228,1.228,0,0,0,.619-.681,1.918,1.918,0,0,0,.013-.842A3.109,3.109,0,0,0,47.316,142.259Z"
                  transform="translate(0 0)"/>
        </g>
    </symbol>

    <symbol id="facebook" viewBox="0 0 19.205 33.282">
        <path d="M24.205,2H19.513a7.821,7.821,0,0,0-7.821,7.821v4.692H7v6.256h4.692V33.282h6.256V20.769h4.692l1.564-6.256H17.949V9.821a1.564,1.564,0,0,1,1.564-1.564h4.692Z"
              transform="translate(-6 -1)"/>
    </symbol>

    <symbol id="instagram" viewBox="0 0 33 33">
        <g transform="translate(0.718 0.718)">
            <rect width="31" height="31" rx="5" transform="translate(0.282 0.282)"/>
            <path d="M20.488,13.3a6.256,6.256,0,1,1-5.271-5.271A6.256,6.256,0,0,1,20.488,13.3Z"
                  transform="translate(1.409 1.36)"/>
            <line x2="0.016" transform="translate(24.244 7.038)"/>
        </g>
    </symbol>

    <symbol id="favorite-icon" viewBox="0 0 26.428 23.434">
        <path id="heart"
              d="M23.17,4.8a6.164,6.164,0,0,0-8.72,0L13.262,5.993,12.074,4.8a6.166,6.166,0,0,0-8.72,8.72l1.188,1.188,8.72,8.72,8.72-8.72,1.188-1.188a6.164,6.164,0,0,0,0-8.72Z"
              transform="translate(-0.049 -1.498)"/>
    </symbol>

    <symbol id="star" viewBox="0 0 22 21.02">
        <path d="M12,2l3.09,6.26L22,9.27l-5,4.87,1.18,6.88L12,17.77,5.82,21.02,7,14.14,2,9.27,8.91,8.26Z"
              transform="translate(-1 -1)"/>
    </symbol>

    <symbol id="category-icon1" viewBox="0 0 48 48">
        <g transform="translate(13.293)">
            <path d="M14.707,12.707l-1.414-1.414,11-11A1,1,0,0,1,25,0h0a1,1,0,0,1,.708.3l10.875,11L35.164,12.7,25,2.418Z"
                  transform="translate(-13.293 0)"/>
        </g>
        <g transform="translate(0 11)">
            <path d="M48,48H0V11H48ZM2,46H46V13H2Z" transform="translate(0 -11)"/>
        </g>
        <g transform="translate(4 15)">
            <path d="M44,44H4V15H44ZM6,42H42V17H6Z" transform="translate(-4 -15)"/>
        </g>
        <g transform="translate(7.231 19)">
            <path d="M27.232,43.64c-.335-.4-6.723-8.15-9.232-17-2.509,8.851-8.9,16.6-9.232,17L7.231,42.36C7.329,42.243,17,30.5,17,20a1,1,0,0,1,2,0c0,10.516,9.67,22.243,9.768,22.36Z"
                  transform="translate(-7.231 -19)"/>
        </g>
        <g transform="translate(13 35)">
            <rect width="10" height="2"/>
        </g>
        <g transform="translate(32 35)">
            <path d="M38,43H36V37H34v6H32V36a1,1,0,0,1,1-1h4a1,1,0,0,1,1,1Z"
                  transform="translate(-32 -35)"/>
        </g>
        <g transform="translate(36 29)">
            <path d="M38,36H36V30a1,1,0,0,1,1-1h6v2H38Z"
                  transform="translate(-36 -29)"/>
        </g>
    </symbol>

    <symbol id="category-icon2" viewBox="0 0 48 48">
        <g>
            <path d="M48,48H0V0H48ZM2,46H46V2H2Z"/>
        </g>
        <g transform="translate(1 34)">
            <rect width="46" height="2"/>
        </g>
        <g transform="translate(9 6)">
            <path d="M19,18H13a4,4,0,1,1,.352-7.984A5.994,5.994,0,1,1,19,18Zm-6-6a2,2,0,0,0,0,4h6a4,4,0,1,0-3.933-4.633l-.2,1.222-1.153-.448A1.971,1.971,0,0,0,13,12Z"
                  transform="translate(-9 -6)"/>
        </g>
        <g transform="translate(6.072 18)">
            <path d="M43.1,35.447,36.032,21.3a2.354,2.354,0,0,0-4.139-.133L25.864,31.5a1,1,0,0,1-.833.5.967.967,0,0,1-.862-.443C24.131,31.5,20.4,26,16,26c-3.546,0-7.029,6.765-8.071,9.372l-1.857-.743C6.507,33.541,10.482,24,16,24c4.015,0,7.336,3.328,8.89,5.2l5.275-9.044a4.355,4.355,0,0,1,7.656.247l7.073,14.146Z"
                  transform="translate(-6.072 -18)"/>
        </g>
    </symbol>

    <symbol id="category-icon3" viewBox="0 0 40 48">
        <g>
            <path d="M44,32H4V24a4,4,0,0,1,4-4H18.046a1,1,0,0,0,.929-1.371A13.552,13.552,0,0,1,18,13.569V6A6,6,0,0,1,30,6v7.569a13.551,13.551,0,0,1-.975,5.059A1,1,0,0,0,29.954,20H40a4,4,0,0,1,4,4ZM6,30H42V24a2,2,0,0,0-2-2H29.954a3,3,0,0,1-2.785-4.114A11.583,11.583,0,0,0,28,13.569V6a4,4,0,0,0-8,0v7.569a11.578,11.578,0,0,0,.831,4.316A3,3,0,0,1,18.046,22H8a2,2,0,0,0-2,2Z"
                  transform="translate(-4)"/>
        </g>
        <g transform="translate(2 30)">
            <path d="M41,48H16a1,1,0,0,1-1-1V43.236l-2.1,4.211A1,1,0,0,1,12,48H7a1,1,0,0,1-1-1V31a1,1,0,0,1,1-1H41a1,1,0,0,1,1,1V47A1,1,0,0,1,41,48ZM17,46H40V32H8V46h3.381l3.724-7.447A1,1,0,0,1,17,39Z"
                  transform="translate(-6 -30)"/>
        </g>
        <g transform="translate(32 36)">
            <path d="M37,48a1,1,0,0,1-1-1V37a1,1,0,0,1,2,0V47A1,1,0,0,1,37,48Z"
                  transform="translate(-36 -36)"/>
        </g>
        <g transform="translate(28 38)">
            <path d="M33,48a1,1,0,0,1-1-1V39a1,1,0,0,1,2,0v8A1,1,0,0,1,33,48Z"
                  transform="translate(-32 -38)"/>
        </g>
        <g transform="translate(24 41)">
            <path d="M29,48a1,1,0,0,1-1-1V42a1,1,0,0,1,2,0v5A1,1,0,0,1,29,48Z"
                  transform="translate(-28 -41)"/>
        </g>
        <g transform="translate(18 4)">
            <circle cx="2" cy="2" r="2"/>
        </g>
    </symbol>

    <symbol id="category-icon4" viewBox="0 0 48 48">
        <g transform="translate(12)">
            <path d="M13,48a1,1,0,0,1-1-1V1a1,1,0,0,1,2,0V47A1,1,0,0,1,13,48Z" transform="translate(-12)"/>
        </g>
        <g transform="translate(23)">
            <path d="M24,48a1,1,0,0,1-1-1V1a1,1,0,0,1,2,0V47A1,1,0,0,1,24,48Z" transform="translate(-23)"/>
        </g>
        <g transform="translate(34)">
            <path d="M35,48a1,1,0,0,1-1-1V1a1,1,0,0,1,2,0V47A1,1,0,0,1,35,48Z"
                  transform="translate(-34)"/>
        </g>
        <g transform="translate(0 12)">
            <path d="M47,14H1a1,1,0,0,1,0-2H47a1,1,0,0,1,0,2Z"
                  transform="translate(0 -12)"/>
        </g>
        <g transform="translate(0 23)">
            <path d="M47,25H1a1,1,0,0,1,0-2H47a1,1,0,0,1,0,2Z"
                  transform="translate(0 -23)"/>
        </g>
        <g transform="translate(0 34)">
            <path d="M47,36H1a1,1,0,0,1,0-2H47a1,1,0,0,1,0,2Z"
                  transform="translate(0 -34)"/>
        </g>
    </symbol>

    <symbol id="category-icon5" viewBox="0 0 44 44">
        <g transform="translate(0 6)">
            <path d="M33,48H27a1,1,0,0,1-1-1V44H5a1,1,0,0,1-1-1V22H1a1,1,0,0,1-1-1V15a1,1,0,0,1,1-1H4V11a1,1,0,0,1,1-1h6a1,1,0,0,1,1,1v3H33a1,1,0,0,1,1,1V36h3a1,1,0,0,1,1,1v6a1,1,0,0,1-1,1H34v3A1,1,0,0,1,33,48Zm-5-2h4V43a1,1,0,0,1,1-1h3V38H33a1,1,0,0,1-1-1V16H11a1,1,0,0,1-1-1V12H6v3a1,1,0,0,1-1,1H2v4H5a1,1,0,0,1,1,1V42H27a1,1,0,0,1,1,1Zm-1-8H11a1,1,0,0,1-1-1V21a1,1,0,0,1,1-1H27a1,1,0,0,1,1,1V37A1,1,0,0,1,27,38ZM12,36H26V22H12Z"
                  transform="translate(0 -10)"/>
        </g>
        <g transform="translate(10 16)">
            <path d="M11,38a1,1,0,0,1-.707-1.707l16-16a1,1,0,0,1,1.414,1.414l-16,16A1,1,0,0,1,11,38Z"
                  transform="translate(-10 -20)"/>
        </g>
        <g transform="translate(32)">
            <path d="M33,16a1,1,0,0,1-.707-1.707l10-10a1,1,0,0,1,1.414,1.414l-10,10A1,1,0,0,1,33,16Z"
                  transform="translate(-32 -4)"/>
        </g>
        <g transform="translate(3 10)">
            <path d="M14,16H4a1,1,0,0,1,0-2H14a1,1,0,0,1,0,2Z"
                  transform="translate(-3 -14)"/>
        </g>
        <g transform="translate(4 16)">
            <path d="M11,22H5a1,1,0,0,1,0-2h6a1,1,0,0,1,0,2Z"
                  transform="translate(-4 -20)"/>
        </g>
        <g transform="translate(26 32)">
            <path d="M33,38H27a1,1,0,0,1,0-2h6a1,1,0,0,1,0,2Z"
                  transform="translate(-26 -36)"/>
        </g>
        <g transform="translate(26 38)">
            <path d="M33,44H27a1,1,0,0,1,0-2h6a1,1,0,0,1,0,2Z"
                  transform="translate(-26 -42)"/>
        </g>
    </symbol>

    <symbol id="category-icon6" viewBox="0 0 42 46.104">
        <g>
            <path d="M24.37,47.1h0A21.4,21.4,0,0,1,4,25C4,11.767,13.42,1,25,1,37.167,1,46,11.093,46,25c0,4.752-3.013,13.84-7.737,13.84-1.542,0-2.988-.971-4.3-2.886-1-1.461-2.072-2.3-2.94-2.3a1.6,1.6,0,0,0-1.228.682c-1.053,1.284-1.82,4.445-.816,9.466a2.256,2.256,0,0,1-.469,1.932C27.585,46.866,25.748,47.1,24.37,47.1ZM25,3C14.522,3,6,12.869,6,25,6,40.04,18.614,45.1,24.368,45.1h0c1.531,0,2.355-.342,2.6-.636a.276.276,0,0,0,.054-.271c-.969-4.846-.509-9.005,1.23-11.127a3.545,3.545,0,0,1,2.774-1.414c1.1,0,2.8.55,4.59,3.169.629.919,1.6,2.016,2.649,2.016C40.978,36.84,44,29.783,44,25,44,12.252,36.008,3,25,3Z"
                  transform="translate(-4 -1)"/>
        </g>
        <g transform="translate(9.998 30)">
            <path d="M19,41a5,5,0,1,1,5-5A5.006,5.006,0,0,1,19,41Zm0-8a3,3,0,1,0,3,3A3,3,0,0,0,19,33Z"
                  transform="translate(-13.998 -31)"/>
        </g>
        <g transform="translate(5.003 18)">
            <path d="M13.006,27h0a4,4,0,1,1,4-4,3.995,3.995,0,0,1-3.994,4Zm0-6A2,2,0,0,0,13,25l.006,1V25a2,2,0,0,0,0-4Z"
                  transform="translate(-9.003 -19)"/>
        </g>
        <g transform="translate(10 9)">
            <path d="M18,18h0a4,4,0,1,1,4-4A3.995,3.995,0,0,1,18,18Zm0-6A2,2,0,0,0,18,16L18,17V16a2,2,0,0,0,0-4Z"
                  transform="translate(-14 -10)"/>
        </g>
        <g transform="translate(19.003 5)">
            <path d="M27.006,14h0a4,4,0,1,1,4-4,3.995,3.995,0,0,1-3.994,4Zm0-6A2,2,0,0,0,27,12l.006,1V12a2,2,0,0,0,0-4Z"
                  transform="translate(-23.003 -6)"/>
        </g>
        <g transform="translate(28 12)">
            <path d="M36,21h0a4,4,0,1,1,4-4A3.995,3.995,0,0,1,36,21Zm0-6A2,2,0,0,0,36,19L36,20V19a2,2,0,0,0,0-4Z"
                  transform="translate(-32 -13)"/>
        </g>
    </symbol>

    <symbol id="category-icon7" viewBox="0 0 38 46">
        <g transform="translate(4)">
            <path d="M36,16H12a4,4,0,0,1-4-4V6a4,4,0,0,1,4-4H36a4,4,0,0,1,4,4v6A4,4,0,0,1,36,16ZM12,4a2,2,0,0,0-2,2v6a2,2,0,0,0,2,2H36a2,2,0,0,0,2-2V6a2,2,0,0,0-2-2Z"
                  transform="translate(-8 -2)"/>
        </g>
        <g transform="translate(35 6)">
            <rect width="3" height="2"/>
        </g>
        <g transform="translate(0 6)">
            <path d="M26,30H24V21a1,1,0,0,0-1-1H8a3.641,3.641,0,0,1-4-4V12A3.641,3.641,0,0,1,8,8H9v2H8c-1.439,0-2,.561-2,2v4c0,1.439.561,2,2,2H23a3,3,0,0,1,3,3Z"
                  transform="translate(-4 -8)"/>
        </g>
        <g transform="translate(17 27)">
            <path d="M26,48H24a3,3,0,0,1-3-3V34c0-3.131,1.5-5,4-5s4,1.869,4,5V45A3,3,0,0,1,26,48ZM25,31c-.5,0-2,0-2,3V45a1,1,0,0,0,1,1h2a1,1,0,0,0,1-1V34C27,31,25.5,31,25,31Z"
                  transform="translate(-21 -29)"/>
        </g>
    </symbol>

</svg>