<svg id="scientific-atlanta-2" xmlns="http://www.w3.org/2000/svg" width="132.756" height="132.756" viewBox="0 0 132.756 132.756">
    <path id="Контур_324" data-name="Контур 324" d="M0,0H132.756V132.756H0Z" fill="#fff" fill-rule="evenodd"/>
    <path id="Контур_325" data-name="Контур 325" d="M40.889,109.968c.08.721.481,2.163,2.964,2.163,1.442,0,2.964-.32,2.964-1.762,0-1.041-1.041-1.282-2.563-1.681l-1.442-.322c-2.323-.48-4.486-.961-4.486-3.925,0-1.521.881-4.165,5.367-4.165,4.326,0,5.447,2.723,5.447,4.325h-2.8c-.08-.559-.32-2-2.8-2-1.121,0-2.483.4-2.483,1.6,0,1.041.881,1.282,1.522,1.442l3.364.8c1.923.4,3.685,1.2,3.685,3.6,0,4.006-4.326,4.405-5.527,4.405-5.127,0-5.928-2.8-5.928-4.486h2.723Zm19.145.481a4.376,4.376,0,0,1-4.727,3.925c-3.925,0-4.807-2.884-4.807-4.966,0-3.205,1.442-5.528,4.966-5.528,1.6,0,4.326.721,4.566,3.765H57.309a1.778,1.778,0,0,0-1.842-1.6c-1.682,0-2.163,1.683-2.163,2.884,0,1.122.08,3.285,2.083,3.285a1.877,1.877,0,0,0,1.842-1.762h2.8Zm1.282,3.6V104.12h2.643v9.934Zm0-11.135v-2.4h2.643v2.4Zm13.7,8.252a4.509,4.509,0,0,1-4.566,3.2c-2.884,0-5.127-1.363-5.127-5.448,0-1.2.4-5.047,4.966-5.047,2,0,4.807.882,4.807,5.448v.48H68.044c.08.721.24,2.483,2.4,2.483a1.84,1.84,0,0,0,1.762-1.121h2.8Zm-2.723-3.044a2.039,2.039,0,0,0-2.083-2.083c-1.282,0-1.923.721-2.083,2.083Zm13.458,5.928H83.025v-6.009c0-.721,0-2-1.762-2a2.05,2.05,0,0,0-2.083,2.323v5.689H76.456V104.12h2.563v1.442H79.1a3.309,3.309,0,0,1,3.123-1.683c2,0,3.526,1.122,3.526,3.285v6.889Zm5.126-9.934h1.683v1.843H90.875v5.446c0,.561,0,.8,1.122.8h.561v1.922a6.858,6.858,0,0,1-1.282.081h-.32c-2.4,0-2.8-.881-2.8-2.163v-6.088H86.789v-1.843h1.362V101.4h2.724v2.725Zm3.044,9.934V104.12h2.643v9.934Zm0-11.135v-2.4h2.643v2.4Zm7.931,11.135H99.126v-8.091H97.684V104.12h1.442v-.8c0-2.083,1.2-2.884,3.044-2.884.8,0,1.2.079,1.442.079V102.6h-.8c-.961,0-.961.32-.961,1.121v.4h1.762v1.843H101.85v8.092Zm2.964,0V104.12h2.724v9.934Zm0-11.135v-2.4h2.724v2.4Zm13.7,7.531a4.374,4.374,0,0,1-4.725,3.925c-3.846,0-4.807-2.884-4.807-4.966,0-3.205,1.521-5.528,4.966-5.528,1.683,0,4.326.721,4.566,3.765h-2.723a1.778,1.778,0,0,0-1.843-1.6c-1.683,0-2.163,1.683-2.163,2.884,0,1.122.081,3.285,2.163,3.285a1.878,1.878,0,0,0,1.843-1.762h2.723ZM50.02,129.514H46.9l5.047-13.458h3.364l4.887,13.458h-3.2l-.882-2.724H50.982l-.962,2.724Zm1.762-5.048h3.524L53.545,119.1Zm12.176-4.885h1.683v1.842H63.959v5.448c0,.561,0,.8,1.121.8a1.581,1.581,0,0,0,.561-.079v2c-.481,0-.882.079-1.282.079h-.4c-2.323,0-2.724-.881-2.724-2.163v-6.088H59.792v-1.842h1.442v-2.724h2.724v2.725Zm2.964,9.933V116.056h2.724v13.458Zm13.217-1.922c0,1.2.241,1.442.641,1.521v.4H77.817a5.359,5.359,0,0,1-.24-1.2,4.288,4.288,0,0,1-3.364,1.442,2.828,2.828,0,0,1-3.124-2.884,3.116,3.116,0,0,1,2.964-3.2l2.484-.32c.4-.081.961-.241.961-.8,0-1.122-1.121-1.122-1.842-1.122-1.362,0-1.522.8-1.6,1.363H71.409c.321-3.044,2.483-3.526,4.646-3.526,1.442,0,4.086.481,4.086,2.884v5.447h0ZM77.5,124.708a5.47,5.47,0,0,1-1.842.48c-1.041.16-1.842.481-1.842,1.523a1.121,1.121,0,0,0,1.2,1.2,2.217,2.217,0,0,0,2.483-2Zm13.939,4.807H88.712v-6.008c0-.8,0-2-1.762-2a2.106,2.106,0,0,0-2.163,2.323v5.687H82.063v-9.933h2.643v1.442a3.4,3.4,0,0,1,3.125-1.764,3.3,3.3,0,0,1,3.6,3.366v6.889Zm5.126-9.933h1.683v1.842H96.562v5.448c0,.561,0,.8,1.122.8a1.581,1.581,0,0,0,.561-.079v2c-.481,0-.881.079-1.282.079h-.4c-2.323,0-2.724-.881-2.724-2.163v-6.088H92.4v-1.842h1.442v-2.724h2.724Zm11.3,8.011c0,1.2.241,1.442.561,1.521v.4h-2.884a5.235,5.235,0,0,1-.32-1.2,3.972,3.972,0,0,1-3.285,1.442c-1.6,0-3.2-.8-3.2-2.884a3.128,3.128,0,0,1,3.044-3.2l2.483-.32c.4-.081.881-.241.881-.8,0-1.122-1.041-1.122-1.762-1.122-1.362,0-1.6.8-1.681,1.363H99.124c.24-3.044,2.483-3.526,4.566-3.526,1.442,0,4.166.481,4.166,2.884v5.447Zm-2.724-2.884a4.873,4.873,0,0,1-1.842.48c-.961.16-1.843.481-1.843,1.523a1.18,1.18,0,0,0,1.282,1.2,2.187,2.187,0,0,0,2.4-2v-1.2h0Z" transform="translate(-11.88 -31.213)" fill="#8a8484" fill-rule="evenodd"/>
    <path id="Контур_326" data-name="Контур 326" d="M55.109,62.041C75.616,48.023,83.066,37.048,85.309,30a52.157,52.157,0,0,0-30.28-1.2V61.962Zm11.535,6.969c20.347-18.585,22.911-33.885,23.231-37.09q2.091.988,4.086,2.163c-.241,7.69-2.8,18.345-15.861,34.927H66.644Zm23.953,0c4.086-6.729,8.891-19.546,8.411-31.4q2.1,1.734,4.086,3.6a61.731,61.731,0,0,1-4.166,27.8H90.6Zm16.181,0a78.62,78.62,0,0,0,1.442-22.03c1.2,1.522,2.323,3.124,3.445,4.807V69.011Z" transform="translate(-17.129 -8.441)" fill="#8a8484" fill-rule="evenodd"/>
    <path id="Контур_327" data-name="Контур 327" d="M95.884,19.238s5.448-5.848,10.495,11.456v.08a62.826,62.826,0,0,1,5.287,5.127V8.5H55.029V22.363A52.423,52.423,0,0,1,86.111,20.2c.16-2.484-.641-4.006-1.282-4.406-2.4-1.442-6.328,1.682-6.328,1.682s3.2-4.807,7.851-2.563a4.8,4.8,0,0,1,2,1.762C89.235,16.034,92.839,13.952,95.884,19.238Z" transform="translate(-17.129 -2.647)" fill="#8a8484" fill-rule="evenodd"/>
    <path id="Контур_328" data-name="Контур 328" d="M86.638,23.569a21.106,21.106,0,0,1,1.843,5.047l.079.08a32.825,32.825,0,0,1,3.846,2.323C90.083,20.605,86.638,23.569,86.638,23.569Zm-2.323,2.964c-.561-6.889-3.846-6.168-5.126-5.527a10.583,10.583,0,0,1,1.28,4.086l-.079-.08c1.282.48,2.564.961,3.925,1.521Zm21.548,38.531a2.328,2.328,0,0,1,2.4-2.242,2.283,2.283,0,0,1,0,4.566A2.343,2.343,0,0,1,105.863,65.065Zm2.4,1.922a1.833,1.833,0,0,0,1.843-1.923,1.813,1.813,0,0,0-1.843-1.842,1.883,1.883,0,1,0,0,3.765Zm-.481-.561h-.4V63.783h.961q.961,0,.961.72a.672.672,0,0,1-.721.721l.8,1.2h-.481l-.721-1.121h-.4Zm.481-1.522c.32,0,.641,0,.641-.4,0-.32-.32-.4-.641-.4h-.48v.8Zm6.007,64.647H115.8v.241h-.641v1.681h-.24v-1.681h-.642v-.241Zm3.285,1.922v-1.6l-.561,1.6h-.24l-.481-1.6v1.6h-.24v-1.922h.32l.561,1.6.48-1.6h.4v1.922h-.24Zm-92.043-13.3v-1.762h2.4c.8,0,1.041.4,1.041.961,0,.481-.32.8-.961.8Zm-.961,3.684H28.24a1.783,1.783,0,0,0,1.923-1.843,1.367,1.367,0,0,0-1.121-1.521,1.255,1.255,0,0,0,.881-1.282c0-.961-.561-1.6-1.923-1.6H24.556v6.248h0Zm.961-.8v-2.083H28.08a1.056,1.056,0,0,1,1.2,1.041c0,.481-.32,1.043-1.282,1.043H25.516Zm5.207-3.765H31.6v.8a1.67,1.67,0,0,1,1.522-.961.877.877,0,0,1,.481.079v.881c-.16,0-.321-.079-.561-.079a1.37,1.37,0,0,0-1.442,1.521v2.323h-.881Zm3.285,4.566v-4.566h.882v4.566Zm0-5.287v-.961h.882v.961Zm1.683.721h.882v.721a2.261,2.261,0,0,1,1.842-.881c1.041,0,1.842.48,1.842,1.6v3.123h-.8V118.9c0-.642-.481-1.041-1.362-1.041a1.39,1.39,0,0,0-1.521,1.362v2.643h-.882v-4.566h0Zm9.533,2.242a1.684,1.684,0,1,1-1.683-1.6A1.536,1.536,0,0,1,45.223,119.537Zm0-1.6a2.3,2.3,0,0,0-1.842-.721,2.261,2.261,0,0,0-2.484,2.323,2.286,2.286,0,0,0,2.563,2.323,2,2,0,0,0,1.762-.8v.641c0,.721-.481,1.362-1.683,1.362-.881,0-1.362-.16-1.521-.72h-.882c.16,1.28,1.282,1.441,2.323,1.441,1.842,0,2.643-.721,2.643-2.323V117.3h-.881v.64Zm2.483-1.362v-.961h-.881v.961Zm0,5.287v-4.566h-.881v4.566Zm.882-4.566h.882v.721a2.025,2.025,0,0,1,1.762-.881c1.121,0,1.923.48,1.923,1.6v3.123h-.881V118.9c0-.642-.4-1.041-1.362-1.041a1.324,1.324,0,0,0-1.442,1.362v2.643h-.882v-4.566h0Zm9.452,2.242a1.684,1.684,0,1,1-1.682-1.6A1.536,1.536,0,0,1,58.039,119.537Zm0-1.6a2.129,2.129,0,0,0-1.762-.721,2.328,2.328,0,1,0,0,4.646,1.928,1.928,0,0,0,1.762-.8v.641c0,.721-.481,1.362-1.682,1.362-.8,0-1.362-.16-1.522-.72h-.881c.24,1.28,1.362,1.441,2.323,1.441,1.842,0,2.643-.721,2.643-2.323V117.3h-.882Zm4.727-2h.881V117.3h1.282v.641H63.647v2.8c0,.4.24.561.641.561.24,0,.4-.079.641-.079v.721a3.942,3.942,0,0,1-.961.079c-.881,0-1.2-.48-1.2-1.121v-2.965H61.8v-.641h.961v-1.362h0Zm2.563-.32h.881v2.4a2.262,2.262,0,0,1,1.842-.881c1.041,0,1.842.48,1.842,1.6v3.123h-.8V118.9c0-.642-.481-1.041-1.362-1.041a1.391,1.391,0,0,0-1.522,1.362v2.643h-.881v-6.248h0Zm6.168,3.524a1.645,1.645,0,0,1,1.682-1.28,1.56,1.56,0,0,1,1.6,1.28Zm4.165.721v-.16a2.367,2.367,0,0,0-2.483-2.563,2.445,2.445,0,1,0,0,4.885,2.583,2.583,0,0,0,2.4-1.521h-.962a1.533,1.533,0,0,1-1.442.8,1.65,1.65,0,0,1-1.682-1.442h4.165Zm3.6,2v-6.248h.881v6.248Zm1.922-4.566h.882v.721a2.07,2.07,0,0,1,1.842-.881c1.041,0,1.843.48,1.843,1.6v3.123h-.8V118.9c0-.642-.48-1.041-1.362-1.041a1.39,1.39,0,0,0-1.521,1.362v2.643H81.19v-4.566Zm5.849-1.362h.8V117.3H89.2v.641H87.839v2.8c0,.4.32.561.721.561.241,0,.4-.079.642-.079v.721a3.953,3.953,0,0,1-.961.079c-.881,0-1.2-.48-1.2-1.121v-2.965h-.961v-.641h.961v-1.362h0Zm3.284,3.2a1.646,1.646,0,0,1,1.683-1.28,1.56,1.56,0,0,1,1.6,1.28Zm4.166.721v-.16a2.311,2.311,0,0,0-2.4-2.563,2.45,2.45,0,1,0,0,4.885,2.551,2.551,0,0,0,2.322-1.521h-.961a1.465,1.465,0,0,1-1.442.8,1.651,1.651,0,0,1-1.683-1.442h4.166Zm.721-2.563h.8v.8h.079a1.67,1.67,0,0,1,1.523-.961.874.874,0,0,1,.48.079v.881c-.16,0-.32-.079-.561-.079a1.429,1.429,0,0,0-1.521,1.521v2.323h-.8v-4.565Zm6.809,2.723c0,.8-.8,1.282-1.843,1.282-.561,0-1.041-.24-1.041-.721s.4-.641,1.041-.721l.961-.16a1.156,1.156,0,0,0,.881-.24v.56h0Zm-2.724-1.28c0-.721.642-.961,1.442-.961.642,0,1.282.16,1.282.8,0,.4-.32.48-.8.559l-.961.081c-1.442.16-2,.561-2,1.442,0,.561.4,1.362,1.843,1.362a2.711,2.711,0,0,0,2-.8c0,.561.32.641.72.641h.721v-.641c-.079,0-.24.079-.32.079a.378.378,0,0,1-.4-.4v-2.483c0-1.043-1.121-1.282-2.082-1.282-1.362,0-2.163.48-2.242,1.6h.8Zm9.213,1.442a2.116,2.116,0,0,1-2.323,1.842,2.28,2.28,0,0,1-2.483-2.4,2.309,2.309,0,0,1,2.483-2.483,2.087,2.087,0,0,1,2.323,1.681h-.881a1.3,1.3,0,0,0-1.442-.961,1.535,1.535,0,0,0-1.6,1.681,1.6,1.6,0,0,0,1.6,1.762,1.39,1.39,0,0,0,1.442-1.121h.881Zm1.041-4.247h.881V117.3h1.282v.641H110.43v2.8c0,.4.241.561.641.561.241,0,.4-.079.642-.079v.721a3.947,3.947,0,0,1-.961.079c-.881,0-1.2-.48-1.2-1.121v-2.965h-.961v-.641h.961v-1.362h0Zm2.564,5.928v-4.566h.881v4.566Zm0-5.287v-.961h.881v.961Zm5.286.721h.962l-2.084,4.566h-.96l-2.084-4.566h1.041L115.8,120.9Zm1.922,1.842a1.645,1.645,0,0,1,1.683-1.28,1.56,1.56,0,0,1,1.6,1.28Zm4.166.721v-.16A2.368,2.368,0,0,0,121,117.135a2.445,2.445,0,1,0,0,4.885,2.581,2.581,0,0,0,2.4-1.521h-.961a1.535,1.535,0,0,1-1.442.8,1.651,1.651,0,0,1-1.683-1.442h4.166Zm-88.518,5.528h4.966v.8h-4v1.762h3.925v.8H35.931v2h4.085v.8H34.969v-6.168Zm9.132,1.682h1.122l-1.842,2.163,2,2.323h-1.2l-1.442-1.683L41.3,131.554H40.176l2-2.323-1.842-2.163h1.121l1.362,1.523,1.281-1.523Zm5.688,2.244a1.536,1.536,0,0,1-1.6,1.681,1.557,1.557,0,0,1-1.683-1.681,1.591,1.591,0,0,1,1.683-1.683A1.57,1.57,0,0,1,49.789,129.312Zm-4.166,4H46.5v-2.323a2.358,2.358,0,0,0,1.762.721,2.4,2.4,0,1,0,0-4.806,2.7,2.7,0,0,0-1.762.721v-.561h-.882v6.247Zm6.488-4.406a1.646,1.646,0,0,1,1.683-1.282,1.493,1.493,0,0,1,1.6,1.282Zm4.166.641v-.079a2.326,2.326,0,0,0-2.483-2.564,2.414,2.414,0,1,0,0,4.806,2.531,2.531,0,0,0,2.4-1.521h-.961a1.534,1.534,0,0,1-1.442.8,1.589,1.589,0,0,1-1.683-1.442h4.166Zm.641-2.483H57.8v.8a1.78,1.78,0,0,1,1.6-.961h.481v.961a1.756,1.756,0,0,0-.641-.081,1.345,1.345,0,0,0-1.442,1.442v2.323h-.881v-4.486h0Zm3.364,4.486v-4.486h.882v4.486Zm0-5.287v-.961h.882v.961Zm2.4,2.644a1.645,1.645,0,0,1,1.682-1.282,1.493,1.493,0,0,1,1.6,1.282Zm4.165.641v-.079a2.534,2.534,0,1,0-2.484,2.242,2.461,2.461,0,0,0,2.4-1.521H65.81a1.465,1.465,0,0,1-1.442.8,1.588,1.588,0,0,1-1.682-1.442h4.165Zm.721-2.483h.8v.641h.08a1.957,1.957,0,0,1,1.762-.8c1.041,0,1.923.4,1.923,1.6v3.044h-.881V128.67c0-.721-.4-1.041-1.362-1.041a1.346,1.346,0,0,0-1.521,1.362v2.564h-.8v-4.486Zm10.014,2.884a2.247,2.247,0,0,1-2.4,1.762,2.4,2.4,0,0,1,0-4.806,2.155,2.155,0,0,1,2.4,1.683h-.961c-.081-.642-.561-.961-1.362-.961a1.684,1.684,0,0,0,0,3.364,1.2,1.2,0,0,0,1.362-1.041h.961Zm1.361-1.041a1.506,1.506,0,0,1,1.6-1.282,1.4,1.4,0,0,1,1.6,1.282Zm4.166.641v-.079a2.326,2.326,0,0,0-2.483-2.564,2.4,2.4,0,1,0,2.323,3.285h-.881a1.579,1.579,0,0,1-1.523.8,1.517,1.517,0,0,1-1.6-1.442h4.165Zm8.571-.881H87.52v2.884h-.961v-6.168h.961v2.484h4.165v-2.484h.961v6.168h-.961Zm6.088.642a1.614,1.614,0,0,1-1.762,1.681,1.682,1.682,0,1,1,0-3.364A1.614,1.614,0,0,1,97.773,129.312Zm-4.406,0a2.656,2.656,0,1,0,2.645-2.4,2.383,2.383,0,0,0-2.645,2.4Zm12.818-.642a.929.929,0,0,0-1.041-1.041c-.8,0-1.523.32-1.523,1.2v2.724h-.881v-2.884a.928.928,0,0,0-1.041-1.041,1.347,1.347,0,0,0-1.523,1.362v2.564h-.881v-4.486h.881v.641a2.016,2.016,0,0,1,1.843-.8,1.831,1.831,0,0,1,1.521.8,2.232,2.232,0,0,1,1.843-.8,1.562,1.562,0,0,1,1.683,1.6v3.044h-.881V128.67Zm2.484.24a1.644,1.644,0,0,1,1.681-1.282,1.374,1.374,0,0,1,1.523,1.282Zm4.164.641v-.079a2.325,2.325,0,0,0-2.483-2.564,2.4,2.4,0,1,0,2.323,3.285h-.881a1.533,1.533,0,0,1-1.442.8,1.587,1.587,0,0,1-1.681-1.442h4.164Z" transform="translate(-7.643 -6.417)" fill="#8a8484" fill-rule="evenodd"/>
</svg>
