<svg id="art-led" xmlns="http://www.w3.org/2000/svg" width="116.749" height="116.749" viewBox="0 0 116.749 116.749">
    <path id="Контур_337" data-name="Контур 337" d="M0,0H116.749V116.749H0Z" fill="#fff" fill-rule="evenodd"/>
    <path id="Контур_338" data-name="Контур 338" d="M36.83,61.354H50.886V67.73H47.225V83.265h-6.7V67.73H37.681a25.056,25.056,0,0,1,.407,4.677A20.792,20.792,0,0,1,36.6,80.75q-1.489,3.405-4.22,3.4-2.482,0-4.189-3.356v26.964H21.426V72.882h-4.2l-.62-3.931H11.181l-.652,3.931h-7.7l7.105-31.07h8.036l4.468,19.711h5.529v2.925a14.687,14.687,0,0,1,2.11-2.853,4,4,0,0,1,2.73-.743q2.328,0,3.8,3.356.114.257.217.523V61.354h0Zm-21.454.136L13.949,51.181h-.155L12.367,61.49h3.009Zm14.334,7.9a1.509,1.509,0,0,0-1.273.959,4.705,4.705,0,0,0-.528,2.3,4.594,4.594,0,0,0,.543,2.3q.542.96,1.257.959a1.506,1.506,0,0,0,1.273-.935,4.681,4.681,0,0,0,.527-2.325,4.919,4.919,0,0,0-.5-2.325,1.476,1.476,0,0,0-1.3-.935ZM56.4,70.629a4.565,4.565,0,1,1-4.564,4.564A4.574,4.574,0,0,1,56.4,70.629Zm16.532,6.747a58.817,58.817,0,0,1-.574,9.325,9.754,9.754,0,0,1-1.986,4.939A4.911,4.911,0,0,1,66.54,93.2a7.277,7.277,0,0,1-3.1-.479V83.032a1.981,1.981,0,0,0,1.956-1.581,14.734,14.734,0,0,0,.528-4.458V61.361H83.852V76.3A12.734,12.734,0,0,1,85.781,72.1q2.42-3.428,5.895-3.428a6.418,6.418,0,0,1,4.157,1.582,10.715,10.715,0,0,1,3.041,4.267,15.211,15.211,0,0,1,1.117,5.9v1.773H90.216a6.331,6.331,0,0,0,.482,2.662q.481,1.031,1.2,1.03.838,0,1.4-1.773l5.85.626a1.57,1.57,0,0,0,1-1.122,13.293,13.293,0,0,0,.4-3.907V68.678h14.645v16.11h.962V95.96h-6.082l.279-5.371h-5.833l.311,5.275H98.744V87.276a8.882,8.882,0,0,1-2.073,2.969,7.11,7.11,0,0,1-5,1.919q-3.412,0-5.864-3.428a12.683,12.683,0,0,1-1.959-4.23V92.43H76.623V69.848H72.931Zm35.927-2.752h-2.264v5.034q0,3.74-.931,5.034h3.195V74.624ZM93.537,77.4a4.036,4.036,0,0,0-.528-1.87,1.294,1.294,0,0,0-1.117-.67,1.279,1.279,0,0,0-1.024.72,4.194,4.194,0,0,0-.589,1.822h3.258Z" transform="translate(-1.117 -16.487)" fill="#8a8484" fill-rule="evenodd"/>
    <path id="Контур_339" data-name="Контур 339" d="M51.645,125.722l-.236,1.141-.6,2.253H49.671l-.6-2.253-.245-1.141-.082,1.076-.22,2.316H46.661l.905-5.863h1.958l.75,2.978.758-2.978H52.99l.832,5.863h-1.86l-.228-2.316Zm4.511-.878a2.064,2.064,0,0,1,1.085.3,2.162,2.162,0,0,1,.787.814,2.285,2.285,0,0,1,0,2.226,2.176,2.176,0,0,1-.787.814,2.075,2.075,0,0,1-1.085.3,2.053,2.053,0,0,1-1.521-.657,2.168,2.168,0,0,1-.64-1.57,2.235,2.235,0,0,1,.29-1.113,2.162,2.162,0,0,1,.787-.814A2.064,2.064,0,0,1,56.156,124.844Zm-.008,1.674a.448.448,0,0,0-.351.173.613.613,0,0,0,0,.8.444.444,0,0,0,.7,0,.613.613,0,0,0,0-.8.447.447,0,0,0-.351-.173ZM61.588,129a1.992,1.992,0,0,1-.979.263,2.13,2.13,0,0,1-1.44-.552,2.07,2.07,0,0,1-.632-1.647,2.4,2.4,0,0,1,.265-1.113,1.97,1.97,0,0,1,.734-.8,2.033,2.033,0,0,1,1.073-.284,2.98,2.98,0,0,1,.979.234v1.674a.626.626,0,0,0-.588-.289q-.636,0-.636.578a.524.524,0,0,0,.191.434.71.71,0,0,0,.461.154.645.645,0,0,0,.571-.308V129Zm.392.117V124.98h1.778v1.674l.775-1.674h2.113l-1.313,1.991,1.395,2.144H64.582l-.816-1.727v1.727Zm9.438-1.058a.971.971,0,0,1-.318.8,1.408,1.408,0,0,1-.906.257H67.3V124.98h2.839a1.215,1.215,0,0,1,.807.266.988.988,0,0,1,.318.8.932.932,0,0,1-.718,1.005.967.967,0,0,1,.644.325A1.02,1.02,0,0,1,71.418,128.057Zm-2.1.018q.342,0,.342-.317a.292.292,0,0,0-.334-.325H68.9v.643h.408Zm-.408-1.493h.416c.207,0,.31-.1.31-.3,0-.181-.1-.271-.285-.271h-.44v.57Zm5.53,2.533V128.5a2.476,2.476,0,0,1-.514.548,1.108,1.108,0,0,1-.694.213,1.231,1.231,0,0,1-.746-.258,1.776,1.776,0,0,1-.555-.733,2.74,2.74,0,0,1-.208-1.108,3.445,3.445,0,0,1,.359-1.629,1.2,1.2,0,0,1,1.142-.678,1.185,1.185,0,0,1,.64.176,1.887,1.887,0,0,1,.518.5v-.551h1.729v4.134H74.436Zm-.514-2.642a.417.417,0,0,0-.334.171.661.661,0,0,0,0,.81.413.413,0,0,0,.673,0,.642.642,0,0,0,.134-.407.632.632,0,0,0-.134-.417.422.422,0,0,0-.339-.163Zm-27.184,9.919h.56v.324l.048.085.042-.085v-.081l.08-.079h.16v-.164h.553v.164h.246l.079.079v.081l.166.16v.085l.081.085v.16l.084.081v.72l-.165.49-.326.16-.079.081h-.713l-.208-.24-.048.074v.987h.566v.164l.079.074v.228h-.075v-.16h-1.13v-.308h.246v-2.851h-.246v-.315Zm.975.324-.085.085h-.075l-.165.16v.245l-.079.081v.639l.079.081v.243l.165.16v.087h.713v-.087l.16-.16v-.243l.079-.081v-.639l-.079-.081v-.245l-.16-.16H48.18l-.074-.085Zm2.668-.324h.714v.164h.165l.081.079v.165h.165v.16l.08.085v.075l.081.085v.394l-.081.081H50.051v.171l.08.085v.239l.165.165v.164h.968v-.164h.086l.084-.082h.15l.081.082v.228h-.246l-.161.165H50.3l-.079-.081h-.081l-.166-.16v-.085l-.16-.161v-.16l-.08-.084v-.72l.08-.081v-.16l.081-.085v-.085l.16-.16v-.081l.324-.16v-.081h0Zm.086.324-.086.085H50.3l-.16.16v.245l-.085.155H51.34v-.315l-.245-.245h-.074l-.086-.085Zm2.706-.324h.713v.164h.171l.076.079v.081l.084.085v.161l.081.084v1.46h.319v.23h-.555l-.165-.165h-.011l-.159.165h-.793l-.086-.081h-.075l-.084-.085v-.161l-.081-.078v-.555l.165-.164h.161v-.246h.16l.079-.079h.713l.053.079.044-.079v-.251l-.086-.084v-.161l-.16,0-.079-.087h-.251l-.56.17v-.234l.086-.079h.239Zm.086,1.22-.086.079h-.079v.085l-.16.16v.395l.079.078v.087h.713v-.164h.159l.087-.082v-.558l-.087-.079h-.627Zm2.386-1.22h1.935v.308h-.244v1.806h.244v.23h-.8v-.23h.244V136.7H56.2v1.546l-.075.079v.165l-.165.159-.08.006-.085.081h-.315v-.23H55.8v-.246l.081-.084V136.7h-.24v-.308Zm2.835,0h.958v.308h-.331v.661l.889.006.005.164.161.16h.165l.081.087v.554l-.081.078v.087l-.165.16h-.08l-.081.081H58.48v-.23h.32V136.7h-.32v-.309Zm.638,1.3v.8H60v-.087l.087-.078v-.394L60,137.852h-.165v-.161h-.72Zm2.233-1.3h.8v.308h-.246v.666h.9V136.7H62.56v-.308h.8v.308h-.24v1.806h.24v.23h-.8v-.23H62.8v-.826h-.9v.826h.246v.23h-.8v-.23h.24V136.7h-.24v-.308Zm3.565,0h.713v.084l.326.16v.081l.158.16v.085l.086.085v.16l.075.081v.639l-.075.081v.243l-.165.16v.087l-.079.074h-.082l-.16.165h-.882l-.16-.165H64.59L64.5,138.5v-.087l-.158-.16v-.243l-.082-.081v-.639l.082-.081v-.16l.085-.086v-.085l.159-.16v-.081l.326-.16v-.084Zm.08.324-.08.085h-.085l-.16.16v.245l-.081.081v.639l.081.081v.243l.16.16v.087h.882v-.087l.16-.16v-.243l.082-.081v-.639l-.082-.081v-.245l-.16-.16h-.085l-.085-.085Zm2.87-.324h.64v.164h.415v-.164h.15v.084l.081.081v.72l-.081.085h-.15l-.084-.085v-.16l-.325-.33h-.079l-.081-.087H68.1l-.08.087-.165,0-.24.245v.24l-.079.085v.491l.079.084v.24l.165.165v.164h.895v-.164l.075-.082h.17V138.1h.15v.081l.081.084v.236h-.081l-.325.16-.08.081h-.879l-.16-.165h-.085l-.081-.075v-.085l-.16-.161v-.243l-.079-.081v-.72l.16-.33.16-.16v-.081l.085-.079h.239v-.165h0Zm2.271,0h1.929v.884h-.231V136.7h-.58v1.8l.485,0v.073l.079.087v.23H71.75v-.16h-1.3v.16h-.076v-.23l.08-.087v-.073h.484V136.7h-.574v.576h-.229v-.884Zm2.793,0h.8v.308h-.24v1.311l.048.085.036-.079.165-.325h.081l.16-.16v-.165l.4-.4v-.085l.079-.075v-.1H74.3v-.308H75.1v.308h-.246v1.806H75.1v.23H74.3v-.23h.246v-1.39l-.038-.081-.049.081v.16l-.244.245v.079l-.165.165v.081l-.483.613.085.047h.08v.23h-.8v-.23h.244V136.7h-.244ZM46.737,131.84h2.008v.308h-.24v1.8l.165.006v.075l.075.085v.23h-.069v-.161h-.81v-.228h.325v-1.806h-.9v1.806h.33v.228h-.885v-.228h.24v-1.806h-.24v-.308Zm2.871,0h.56v.324l.048.084.042-.084v-.081l.08-.079h.16v-.164h.553V132H51.3l.079.079v.081l.166.159v.087l.081.085v.16l.085.081v.72l-.165.49-.326.159-.079.081h-.713l-.208-.239-.048.074v.987h.566v.164l.079.073v.23h-.074v-.16h-1.13v-.308h.246v-2.852h-.246v-.313Zm.976.324-.085.084h-.075l-.165.161v.245l-.079.081v.638l.079.082v.243l.165.16v.087h.713v-.087l.16-.16v-.243l.079-.082v-.638l-.079-.081v-.245l-.16-.161h-.086l-.074-.084h-.393Zm2.633-.324h.713v.084l.326.16v.081l.158.159v.087l.086.085v.16l.075.081v.638l-.075.082v.243l-.165.16v.087l-.079.074h-.081l-.16.164h-.882l-.16-.164h-.081l-.086-.074v-.087l-.158-.16v-.243l-.082-.082v-.638l.082-.081v-.16l.085-.085v-.087l.159-.159v-.081l.326-.16Zm.08.324-.08.084h-.085l-.16.161v.245l-.081.081v.638l.081.082v.243l.16.16v.087h.882v-.087l.16-.16v-.243l.081-.082v-.638l-.081-.081v-.245l-.16-.161H53.93l-.085-.084Zm2.87-.324h.713V132h.165l.081.079v.164h.165v.161l.08.085v.075l.081.085v.394l-.081.081H55.836v.17l.08.087v.239l.165.164v.165h.968v-.165h.086l.085-.081h.15l.081.081v.23h-.246l-.161.164h-.958l-.079-.081h-.082l-.166-.159v-.085l-.16-.161v-.16l-.08-.084v-.72l.08-.081v-.16l.081-.085v-.087l.16-.159v-.081l.324-.16v-.081Zm.086.324-.086.084h-.079l-.16.161v.245l-.085.154h1.283v-.314l-.246-.246h-.073l-.087-.084h-.468Zm2.1-.324h.964v.308H59v.666h.084l.4-.4v-.087l.084-.075v-.01l-.084-.091v-.308h.725v.308h-.246l-.4.417v.16l-.16.16v.094l.16.16h.079l.246.486.161.164v.165h.409v.228h-.485l-.24-.239v-.165l-.161-.164v-.076l-.239-.243v-.165H59.07v.165l-.074.078v.582h.319v.228h-.964v-.228h.325v-1.806h-.325v-.309Zm3,0H63.28v.884H63.05v-.576h-.58v1.8l.485.006v.073l.079.087v.23h-.068v-.161h-1.3v.161H61.59v-.23l.08-.087v-.073h.484v-1.806H61.58v.576h-.229v-.884Zm2.792,0h.8v.308H64.7v1.311l.048.085.037-.079.165-.326h.081l.16-.16v-.164l.4-.4v-.087l.079-.075v-.1H65.51v-.308h.806v.308h-.246v1.806h.246v.228H65.51v-.228h.246v-1.39l-.038-.081-.049.081v.16l-.244.243v.081l-.165.164v.082l-.484.612.085.048h.08v.228h-.8v-.228h.244v-1.806h-.244v-.308Zm2.95,0h.56v.324l.048.084.042-.084v-.081l.08-.079h.16v-.164h.553V132h.246l.079.079v.081l.166.159v.087l.081.085v.16l.085.081v.72l-.165.49-.326.159-.079.081h-.714l-.208-.239-.048.074v.987h.566v.164l.079.073v.23h-.075v-.16h-1.13v-.308h.246v-2.852h-.246Zm.975.324-.085.084h-.074l-.165.161v.245l-.079.081v.638l.079.082v.243l.165.16v.087h.713v-.087l.16-.16v-.243l.079-.082v-.638l-.079-.081v-.245l-.16-.161h-.086l-.074-.084Zm2.633-.324h.713v.084l.326.16v.081l.158.159v.087l.086.085v.16l.075.081v.638l-.075.082v.243l-.165.16v.087l-.079.074h-.082l-.16.164h-.882l-.16-.164h-.081l-.087-.074v-.087l-.158-.16v-.243l-.082-.082v-.638l.082-.081v-.16l.085-.085v-.087l.159-.159v-.081l.326-.16v-.084Zm.08.324-.08.084h-.085l-.16.161v.245l-.081.081v.638l.081.082v.243l.16.16v.087H71.5v-.087l.16-.16v-.243l.082-.082v-.638l-.082-.081v-.245l-.16-.161h-.085l-.085-.084Zm2.14-.324h1.689v.084l.165.16v.081l.08.084v.477l-.08.084v.076l-.086.084v.17h.247l.084.087v.552l-.084.079v.087l-.161.159H74.69l-.079.081H72.922v-.228h.325v-1.8h-.325v-.314Zm.65.324v.644h.879v-.084l.079-.082v-.395l-.079-.084h-.879Zm0,.975v.8h1.039v-.087l.079-.079v-.392l-.079-.087h-.16v-.16h-.879Zm2.871-1.3h.714V132h.17l.077.079v.081l.084.084v.161l.082.085v1.46h.318v.228h-.555l-.165-.164h-.011l-.159.164H76.2l-.086-.081h-.075l-.084-.084v-.161l-.081-.079v-.554l.165-.164H76.2v-.246h.16l.079-.079h.714l.053.079.044-.079v-.251l-.087-.085v-.16l-.159,0-.079-.087h-.251l-.56.17v-.234L76.2,132h.239Zm.086,1.219-.086.078h-.079v.087l-.16.16v.394l.079.079v.087H77v-.165h.159l.087-.081v-.56l-.087-.078h-.627Zm2.263-1.219h.8v.308h-.246v.666h.9v-.666H80v-.308h.8v.308h-.239v1.806H80.8v.228H80v-.228h.243v-.826h-.9v.826h.246v.228h-.8v-.228h.24v-1.806h-.24Zm2.837,0h.8v.308h-.24v1.311l.048.085.037-.079.164-.326h.082l.16-.16v-.164l.4-.4v-.087l.079-.075v-.1H83v-.308H83.8v.308h-.245v1.806H83.8v.228H83v-.228h.246v-1.39l-.037-.081-.05.081v.16l-.243.243v.081l-.165.164v.082l-.483.612.085.048h.079v.228h-.8v-.228h.243v-1.806h-.243v-.308h0Zm3.679,0h.714V132h.165l.081.079v.164h.165v.161l.079.085v.075l.081.085v.394l-.081.081H84.979v.17l.079.087v.239l.165.164v.165h.968v-.165h.087l.084-.081h.15l.081.081v.23h-.245l-.161.164H85.23l-.079-.081H85.07l-.165-.159v-.085l-.16-.161v-.16l-.081-.084v-.72l.081-.081v-.16l.081-.085v-.087l.16-.159v-.081l.324-.16v-.081h0Zm.086.324-.087.084h-.079l-.16.161v.245l-.085.154h1.283v-.314l-.246-.246h-.073l-.087-.084h-.466Z" transform="translate(-18.399 -48.6)" fill="#8a8484" fill-rule="evenodd"/>
</svg>
