<svg id="dickies-1" xmlns="http://www.w3.org/2000/svg" width="112.161" height="62" viewBox="0 0 112.161 62">
    <circle id="Эллипс_62" data-name="Эллипс 62" cx="1.921" cy="1.921" r="1.921" transform="translate(96.51 42.459)"/>
    <path id="Контур_123" data-name="Контур 123" d="M56.329,0c18.21,0,33.81,8.4,39.876,20.155h12.34l.9.1.506.159.492.234.479.331.417.406.344.492.258.528.148.53.073.528-.011.506-.172.912-.331.812-7.764,12.525a8.321,8.321,0,0,1-1,1.194,9.345,9.345,0,0,1-1.536,1.132,10.029,10.029,0,0,1-1.057.455,7.93,7.93,0,0,1-1.219.272H96.49C90.647,53.311,74.834,62,56.331,62,37.85,62,22.053,53.325,16.194,41.28H3.618l-.9-.1-.506-.161-.492-.234-.479-.32-.417-.417L.481,39.57l-.258-.528L.075,38.5,0,37.969l.013-.506.172-.909.331-.812L8.291,23.23a7.108,7.108,0,0,1,.985-1.208A9.192,9.192,0,0,1,10.815,20.9a9.128,9.128,0,0,1,1.057-.468,8.168,8.168,0,0,1,1.219-.272h3.371C22.517,8.415,38.13,0,56.329,0Z" fill="#8a8484"/>
    <path id="Контур_124" data-name="Контур 124" d="M55.6.6C73.689.6,89.131,9.055,94.667,20.743H107.8l.616.075.64.245.3.21.258.258.21.3.161.32.135.664a3.536,3.536,0,0,1-.124.96,4.644,4.644,0,0,1-.382.837l-7.726,12.4A6.171,6.171,0,0,1,100,38.648l-.565.269a4.775,4.775,0,0,1-1.488.322H94.917c-5.3,11.985-20.929,20.706-39.311,20.706-18.358,0-34-8.722-39.3-20.706H2.93L2.3,39.163l-.64-.247-.3-.21-.258-.245-.21-.3-.159-.331L.6,37.169a3.675,3.675,0,0,1,.124-.96,5.543,5.543,0,0,1,.4-.837l7.715-12.4a6.8,6.8,0,0,1,1.106-1.119,5.993,5.993,0,0,1,1.932-.985l.616-.11h4.06C22.084,9.055,37.515.6,55.6.6Z" transform="translate(0.726 0.727)" fill="#fff"/>
    <path id="Контур_125" data-name="Контур 125" d="M54.881,1.2c17.287,0,32.064,7.874,37.6,18.826H85.748c-2.768-3.852-8.095-8.366-16.007-11.038C58.962,5.368,47.1,8.9,40.951,10.436a32.786,32.786,0,0,1-5.377.837l1.709,5.512c7.234-1.3,16.512-4.038,26.11-1.724C69.852,16.6,73,18.5,74.539,20.032H43.572V16.394c-1.254.221-3.74.592-4.982.837v2.806h-21.3C22.814,9.074,37.6,1.2,54.881,1.2Zm37.87,37.32c-5.3,11.245-20.289,19.391-37.87,19.391-17.559,0-32.545-8.146-37.859-19.391h21.57v3.358c1.243.245,3.728.6,4.982.837V38.518H75.046c-1.3,1.611-4.393,3.79-11.651,5.523-9.6,2.3-18.874-.417-26.11-1.722l-1.709,5.512a31.626,31.626,0,0,1,5.377.826c6.152,1.55,18.013,5.082,28.79,1.45,8.291-2.781,13.744-7.616,16.389-11.589ZM2.232,37.2H97.181a4.122,4.122,0,0,0,3.026-1.87l7.53-12.119c.64-1.022.32-1.859-.7-1.859H12.086A4.1,4.1,0,0,0,9.06,23.211L1.53,35.33C.89,36.35,1.21,37.2,2.232,37.2Z" transform="translate(1.448 1.447)" fill="#8a8484"/>
    <path id="Контур_126" data-name="Контур 126" d="M81.21,30.91h-2.6l1.709-2.868h2.461s-.272,1.194,1.095,1.194,1.66-.444,1.821-.7-.148-.479-1.576-.861-2.717-.664-2.411-1.8,2.276-3.26,5.563-3.26a3.087,3.087,0,0,1,1.857.53l.369-.43h2.583l-1.711,2.706h-2.1s.024-.9-1.095-.9-1.464.355-1.525.6.592.481,1.773.713c1.194.247,2.951,1.146,1.943,2.623s-2.682,2.523-5.488,2.523a3.237,3.237,0,0,1-2.313-.64Zm-6.276-2.671h2.351a4.814,4.814,0,0,1-4.748,2.744c-3.74,0-4.135-2.313-4.035-3.519s1.832-5.044,6.815-5.044,3.029,4.009,2.768,4.687H71.909s-.863,1.945.909,1.945,2.115-.812,2.115-.812ZM44.1,22.715h1.773l-1.611,3.21H42.614s-.4-1.181-1.38-1.192c-.971-.026-3.161,1.464-3.161,3.185s1.205,1.426,1.291,1.426a2.866,2.866,0,0,0,2.375-1.3h1.722s-.517,3.26-4.91,3.26-4.294-3.506-3.532-5.068,2.325-3.653,6.559-3.653a3.477,3.477,0,0,1,2.227.689l.3-.552Zm6.656,4.773-1.709,3.188H44.126l1.453-2.362h1.415l3.629-5.98H49.256l1.366-2.362h4.614l-3.2,5.426,5.956-2.744h2.744l-1.194,2.031H58.066l-3.653,1.759L55.79,28.3h2.029l-1.377,2.373H52.887Zm15.874-7.726c1.329,0,2.4.479,2.4,1.057s-1.071,1.068-2.4,1.068-2.389-.479-2.389-1.068S65.313,19.762,66.631,19.762Zm-33.812,0c1.316,0,2.386.479,2.386,1.057s-1.071,1.068-2.386,1.068-2.389-.479-2.389-1.068S31.5,19.762,32.819,19.762Zm31.755,8.921h1.342l-1.157,1.993H58.534L59.85,28.6h1.355l2.2-3.6h-1.34l1.377-2.179H68.13Zm-33.821,0H32.1l-1.168,1.993H24.724L26.04,28.6h1.34l2.216-3.6H28.241l1.38-2.179h4.689Zm-13.2,1.993H5.713L7.1,28.413H9.3l3.519-5.843H10.709l1.353-2.263H20.28c4.589,0,5.77,2.682,5,4.921A7.758,7.758,0,0,1,17.55,30.676ZM69.09,16.636C67.554,15.1,64.4,13.2,57.945,11.664c-9.6-2.313-18.874.419-26.11,1.724L30.126,7.876A33.061,33.061,0,0,0,35.5,7.04c6.152-1.536,18.013-5.068,28.79-1.45C72.2,8.258,77.532,12.775,80.3,16.627Z" transform="translate(6.898 4.845)" fill="#fff"/>
    <path id="Контур_127" data-name="Контур 127" d="M20.818,11.62a21.3,21.3,0,0,1-5.55.258L13.46,5.713a40.018,40.018,0,0,0,5.6.2Z" transform="translate(16.253 6.898)" fill="#bfbfbf"/>
    <path id="Контур_128" data-name="Контур 128" d="M23.785,14.583v-2.8c1.243-.245,3.728-.616,4.982-.837v3.64H23.785ZM20.818,11.62a21.3,21.3,0,0,1-5.55.258L13.46,5.713a40.018,40.018,0,0,0,5.6.2ZM60.239,33.066H71.325c-2.645,3.974-8.095,8.808-16.389,11.589-10.779,3.631-22.64.1-28.79-1.45a31.593,31.593,0,0,0-5.377-.826l1.709-5.512c7.234,1.3,16.512,4.024,26.11,1.722C55.849,36.854,58.937,34.675,60.239,33.066Z" transform="translate(16.253 6.898)" fill="#fff"/>
    <path id="Контур_129" data-name="Контур 129" d="M44.37,23.022l2.72-1.821c.812-.541-.1-1.155-.936-.874a5,5,0,0,0-2.486,1.859C43.264,22.85,43.767,23.426,44.37,23.022Zm-5.956,2.486,2.757-1.071c.689-.269.517-.9-.272-.909a3.7,3.7,0,0,0-2.916,1.157c-.541.7-.121,1.119.43.823Zm-5.746,1.327,2.682-.417c.592-.086.358-.874-.468-.971a3.255,3.255,0,0,0-2.018.285C32.3,26.048,32.092,26.92,32.668,26.834Zm-5.647.3,2.141-.1c.592-.026.764-.517.223-.764a2.778,2.778,0,0,0-2.51,0c-.506.258-.419.874.146.861Z" transform="translate(32.05 24.459)" fill="#8a8484"/>
    <path id="Контур_130" data-name="Контур 130" d="M18.137,18.1h4.982V22.3c-1.254-.234-3.74-.592-4.982-.837Z" transform="translate(21.901 21.861)" fill="#fff"/>
    <path id="Контур_131" data-name="Контур 131" d="M20.818,19.887a21.3,21.3,0,0,0-5.55-.258L13.46,25.792a38.053,38.053,0,0,1,5.6-.2l1.759-5.709Z" transform="translate(16.253 23.594)" fill="#bfbfbf"/>
    <path id="Контур_132" data-name="Контур 132" d="M20.818,19.887a21.3,21.3,0,0,0-5.55-.258L13.46,25.792a38.053,38.053,0,0,1,5.6-.2l1.759-5.709Z" transform="translate(16.253 23.594)" fill="#fff"/>
    <path id="Контур_133" data-name="Контур 133" d="M65.133,8.825l2.72,1.808c.812.552-.1,1.168-.936.885A5.011,5.011,0,0,1,64.431,9.66C64.027,9,64.53,8.419,65.133,8.825Zm-5.956-2.5L61.934,7.41c.689.272.517.885-.272.912a3.71,3.71,0,0,1-2.916-1.157c-.541-.7-.121-1.132.43-.839ZM53.431,5.011l2.682.406c.592.086.358.885-.468.985a3.351,3.351,0,0,1-2.018-.283c-.565-.32-.773-1.194-.2-1.108Zm-5.647-.3,2.141.086c.592.038.764.53.223.775a2.819,2.819,0,0,1-2.51,0C47.133,5.318,47.219,4.7,47.784,4.715ZM71.137,24.956H68.087a2.91,2.91,0,0,1,2.386-1.55C71.038,23.419,71.753,23.848,71.137,24.956ZM9.347,27.563h2.486c2.115,0,3.358-1.329,4.428-2.94a1.789,1.789,0,0,0-1.6-2.9H12.866Z" transform="translate(11.287 5.693)" fill="#8a8484"/>
    <path id="Контур_134" data-name="Контур 134" d="M47.219,21.033a1.7,1.7,0,1,1-1.7-1.7A1.7,1.7,0,0,1,47.219,21.033Z" transform="translate(52.912 23.347)" fill="#fff"/>
    <path id="Контур_135" data-name="Контур 135" d="M44.266,21.707h.272v-.9h.689c.444,0,.32.38.369.64l.038.258h.331c-.124-.183-.086-.223-.1-.506-.038-.369-.049-.393-.258-.541a.516.516,0,0,0,.272-.517c-.024-.479-.344-.541-.664-.541h-.947v2.1Z" transform="translate(53.451 23.671)"/>
    <path id="Контур_136" data-name="Контур 136" d="M45.066,19.708c.172,0,.43.049.393.406a.34.34,0,0,1-.393.32h-.678v-.726Z" transform="translate(53.599 23.798)" fill="#fff"/>
</svg>
