<svg id="Сгруппировать_163" data-name="Сгруппировать 163" xmlns="http://www.w3.org/2000/svg" width="135.395" height="68.15" viewBox="0 0 135.395 68.15">
    <path id="Контур_329" data-name="Контур 329" d="M76.9,9.7C39.506,9.7,9.2,24.958,9.2,43.775S39.506,77.85,76.9,77.85s67.7-15.258,67.7-34.075S114.29,9.7,76.9,9.7" transform="translate(-9.2 -9.7)" fill="#8a8484"/>
    <path id="Контур_330" data-name="Контур 330" d="M80.045,17.3C45.611,17.3,17.7,30.482,17.7,46.7c0,16.248,27.911,29.4,62.345,29.4s62.374-13.182,62.374-29.4c-.029-16.22-27.94-29.4-62.374-29.4" transform="translate(-12.354 -12.8)" fill="none" stroke="#fff" stroke-width="5.487"/>
    <g id="Сгруппировать_161" data-name="Сгруппировать 161" transform="translate(27.007 19)">
        <path id="Контур_323" data-name="Контур 323" d="M147.579,58.157h-8.6L137.932,61.3h5.554l-6.334,2.29-.414,1.267,9.769-3.338,1.072-3.362M93.643,63.419l-1.169,3.338h-8.38s.195-.073.463-.633S88.7,54.283,88.7,54.283s.536-1.194-.073-1.486h4.848s-.268-.073-.731,1.121c-.268.682-3.508,9.745-3.508,9.745h3.508s.8.073.9-.244m13.789,3.338h3.947a1.065,1.065,0,0,1-.1-.877c.219-.633,2.314-6.6,2.314-6.6l.926,7.479H118.1l4.677-13.3s.195-.633.463-.633h-3.8a1.761,1.761,0,0,1-.024.8c-.146.365-2.29,6.383-2.29,6.383l-.853-7.187h-4.093a.907.907,0,0,1,.073.731c-.122.317-4.336,12.424-4.336,12.424s-.244.78-.487.78m22.535-13.935h-4.483s.341.56-.1,1.876-3.874,11.011-3.874,11.011-.268.926-.633,1.1h5.408a8.866,8.866,0,0,0,8.575-6.943C134.838,59.838,137.4,52.749,129.966,52.822Zm.487,7.625c-1.145,2.923-2.85,3.118-3.752,3.118h-.633l2.631-7.747h1.023C129.7,55.818,132.329,55.672,130.453,60.447ZM78.1,78.012h8.6l1.048-3.143H82.168l6.358-2.29.414-1.267-9.769,3.362L78.1,78.012m24.483-2.923c1.608-5.408-3.825-5.262-3.825-5.262H93.18c.414.463.1,1.462.1,1.462S89.818,81.642,89.55,82.445a4.127,4.127,0,0,1-.755,1.34H93.2c-.146,0-.146-.463-.146-.463l1.584-4.385s1.973,4.044,2.119,4.312a.923.923,0,0,1,.073.512h4.7c-.463,0-.926-.9-.926-.9L98.271,78.45c3.24.049,4.312-3.362,4.312-3.362ZM98.734,74.6a2.323,2.323,0,0,1-2.29,1.218h-.853l.9-2.8h.926C99.441,73.017,98.734,74.6,98.734,74.6Zm52.5.658c1.73-5.676-3.776-5.384-3.776-5.384h-5.53c.414.463.1,1.462.1,1.462s-3.606,10.4-3.874,11.182a3.676,3.676,0,0,1-.78,1.316h4.6c-.341,0-.1-.853-.1-.853l1.413-4s1.9,4.044,2.046,4.312a.716.716,0,0,1,.073.512h4.872c-.463,0-.95-.9-.95-.9L146.995,78.5c3.264.049,4.239-3.24,4.239-3.24Zm-3.9-.585a2.21,2.21,0,0,1-2.168,1.218h-.853l.9-2.777h1.218s1.486-.049.9,1.559Zm-36.007-5.213c-4.312,0-7.114,3.411-7.844,7.65-.658,3.9,1.437,7.016,4.921,7.016,4.872,0,7.771-4.994,7.771-8.575C116.177,71.8,114.691,69.461,111.329,69.461Zm.633,7.771c-.706,2.923-2.046,3.825-3.24,3.606-1.657-.317-1.364-3-1.1-4.239.585-2.7,2.022-4,3.094-3.874.341.049,2.29.1,1.242,4.507Zm5.36-7.357s.341.195.341,1.072V83.03s-.049.658-.292.8h3.606a1.4,1.4,0,0,1,.365-.755c.365-.463,7.869-11.011,7.869-11.011s1.705-2.217,2.168-2.217H126.19a.57.57,0,0,1,.1.8c-.317.512-4.921,7.723-4.921,7.723l.073-7.26s0-1.169.439-1.267l-4.556.024M139.2,73.164l1.169-3.289H131.6s.317.292-.1,1.462-3.971,11.182-3.971,11.182-.633,1.316-.8,1.316h9.038l1.072-3.338s-.146.195-1,.195h-3.825l.8-2.266h3s.633-.049.755.146l1.218-3.581s-.1.317-.9.317H134.01l.853-2.485h3.654c0,.024.487-.049.682.341m-32.23-6.383a1.033,1.033,0,0,1-.39-.755l-.536-12.278s-.024-.78.341-.95H102.1s.292.39-.268,1.267c-.585.877-7.893,12.23-7.893,12.23a1.133,1.133,0,0,1-.512.463H97.76a1.322,1.322,0,0,1,.1-.585c.195-.414.731-1.389.731-1.389h4.361V66a1.079,1.079,0,0,1-.292.755h4.312Zm-6.5-5.14,2.412-4.093.024,4.093Z" transform="translate(-78.1 -52.796)" fill="#fff"/>
    </g>
</svg>
