<svg id="pall-mall" xmlns="http://www.w3.org/2000/svg" width="119.756" height="119.756" viewBox="0 0 119.756 119.756">
    <path id="Контур_137" data-name="Контур 137" d="M0,0H119.756V119.756H0Z" fill="#fff" fill-rule="evenodd"/>
    <path id="Контур_138" data-name="Контур 138" d="M63.592,57.851h-2.46v-.826h8.894l2.985,18.117L75.7,57.024H85v.826H82.55v47.211H85v.846H73.522v-.846H76V60.57L71.022,96.791l-6.5-36.3V101.16a3.552,3.552,0,0,0,3.8,3.9v.846H59.794v-.846a3.5,3.5,0,0,0,3.787-3.891l.011-43.32Zm-23.993,0v47.211H38.522v.846H46.6v-.846H45.551V57.024h-7.6v.826H39.6Zm8.639,0v47.211H47.161v.846h8.082v-.846H54.19V57.024h-7.6v.826Zm-20.3,26.341a4.225,4.225,0,0,0-.982,2.653v16.619c0,1.58.995,1.112,1.4.819,2.921-2.358,2.57-6.379,2.57-6.379V80.7S28.974,82.994,27.942,84.191ZM24.8,72.976a2.124,2.124,0,0,1,3.511.819c1.174,2.428.819,7.9-2.224,7.9s-2.732-5.073-2.516-7.022,1.2-7.549,6.73-7.549,5.91,4.69,5.91,6.028v31.91h1.743v.846H30.939V102s-1.229,3.908-4.857,3.908-4.857-4.155-5.032-6.436-.585-7.829,5.618-14.91c3.511-4.1,4.268-5.032,4.268-5.032V71.513a2.485,2.485,0,0,0-2.98-2.926c-2.191.235-3.416,4.7-3.159,4.388Zm78.63-15.125v47.211h-1.077v.846h8.082v-.846h-1.053V57.024h-7.6v.826h1.65Zm8.64,0v47.211h-1.079v.846h8.083v-.846h-1.053V57.024h-7.6v.826h1.651Zm-20.3,26.341a4.221,4.221,0,0,0-.982,2.653v16.619c0,1.58,1,1.112,1.4.819,2.922-2.358,2.571-6.379,2.571-6.379V80.7S92.8,82.994,91.768,84.191ZM88.621,72.976a2.124,2.124,0,0,1,3.51.819c1.174,2.428.82,7.9-2.223,7.9s-2.732-5.073-2.517-7.022,1.2-7.549,6.73-7.549,5.91,4.69,5.91,6.028v31.91h1.744v.846h-7.01V102s-1.228,3.908-4.856,3.908-4.857-4.155-5.032-6.436-.586-7.829,5.617-14.91c3.51-4.1,4.268-5.032,4.268-5.032V71.513a2.485,2.485,0,0,0-2.98-2.926c-2.191.235-3.417,4.7-3.16,4.388ZM5.3,105.062H2.834v.859H14.255v-.859H11.8V87.371s10.838,1.176,10.838-15.545c0-15.482-10.838-14.8-10.838-14.8H2.834v.826H5.3v47.211Zm9.838-21.085s.21,2.542-3.336,2.542V57.851c3.546,0,3.336,2.542,3.336,2.542Z" transform="translate(-1.073 -21.594)" fill="#8a8484" fill-rule="evenodd"/>
</svg>
