<?xml version="1.0" encoding="UTF-8" standalone="no"?><svg xmlns:dc="http://purl.org/dc/elements/1.1/" xmlns:cc="http://creativecommons.org/ns#" xmlns:rdf="http://www.w3.org/1999/02/22-rdf-syntax-ns#" xmlns:svg="http://www.w3.org/2000/svg" xmlns="http://www.w3.org/2000/svg" viewBox="0 0 50 35" height="35" width="50" id="svg2" version="1.1"><metadata id="metadata8"><rdf:RDF><cc:Work rdf:about=""><dc:format>image/svg+xml</dc:format><dc:type rdf:resource="http://purl.org/dc/dcmitype/StillImage" /><dc:title></dc:title></cc:Work></rdf:RDF></metadata><defs id="defs6" /><g transform="matrix(1.7241379,0,0,1.7241379,0,0.51724322)" id="g4580"><rect style="opacity:1;fill:#ffa600;fill-opacity:1;fill-rule:nonzero;stroke:none;stroke-width:1.00157475;stroke-miterlimit:4;stroke-dasharray:none;stroke-opacity:1;paint-order:stroke fill markers" id="rect4523" width="15.000176" height="13.999067" x="0.99699062" y="0.0016899109" /><path style="opacity:1;fill:#ffa600;fill-opacity:1;fill-rule:nonzero;stroke:none;stroke-width:1.00157475;stroke-miterlimit:4;stroke-dasharray:none;stroke-opacity:1;paint-order:stroke fill markers" d="m 0,15 v 2 h 5.0410156 a 3.499243,3.499243 0 0 1 1.0117188,-2 z m 10.943359,0 a 3.499243,3.499243 0 0 1 1.017579,2 h 6.580078 a 3.499243,3.499243 0 0 1 1.011718,-2 z m 13.5,0 a 3.499243,3.499243 0 0 1 1.017579,2 H 29 v -2 z" id="rect4525" /><path style="opacity:1;fill:#ffa600;fill-opacity:0.98717945;fill-rule:nonzero;stroke:none;stroke-width:1.00157475;stroke-miterlimit:4;stroke-dasharray:none;stroke-opacity:1;paint-order:stroke fill markers" d="M 16.998047,1.9999999 V 15 h 2.554687 A 3.499243,3.499243 0 0 1 22,14 a 3.499243,3.499243 0 0 1 2.443359,1 h 3.554688 V 7.9999999 l -3.998047,-6 z m 2.001953,3 h 4 l 2,3 h -6 z" id="rect4529" /><path style="opacity:1;fill:#ffa600;fill-opacity:1;fill-rule:nonzero;stroke:none;stroke-width:1.00157475;stroke-miterlimit:4;stroke-dasharray:none;stroke-opacity:1;paint-order:stroke fill markers" d="M 8.5,15 A 2.5,2.5 0 0 0 6,17.5 2.5,2.5 0 0 0 8.5,20 2.5,2.5 0 0 0 11,17.5 2.5,2.5 0 0 0 8.5,15 Z m 0,1.041016 A 1.4583695,1.4583695 0 0 1 9.9589844,17.5 1.4583695,1.4583695 0 0 1 8.5,18.958984 1.4583695,1.4583695 0 0 1 7.0410156,17.5 1.4583695,1.4583695 0 0 1 8.5,16.041016 Z" id="path4565" /><path style="opacity:1;fill:#ffa600;fill-opacity:0.97863243;fill-rule:nonzero;stroke:none;stroke-width:1.00157475;stroke-miterlimit:4;stroke-dasharray:none;stroke-opacity:1;paint-order:stroke fill markers" d="M 22,15 A 2.5,2.5 0 0 0 19.5,17.5 2.5,2.5 0 0 0 22,20 2.5,2.5 0 0 0 24.5,17.5 2.5,2.5 0 0 0 22,15 Z m 0,1.041016 A 1.4583695,1.4583695 0 0 1 23.457031,17.5 1.4583695,1.4583695 0 0 1 22,18.958984 1.4583695,1.4583695 0 0 1 20.541016,17.5 1.4583695,1.4583695 0 0 1 22,16.041016 Z" id="circle4567" /></g></svg> 