<?xml version="1.0" encoding="UTF-8" standalone="no"?>
<svg width="20px" height="20px" viewBox="0 0 20 20" version="1.1" xmlns="http://www.w3.org/2000/svg" xmlns:xlink="http://www.w3.org/1999/xlink">
    <!-- Generator: sketchtool 48.1 (47250) - http://www.bohemiancoding.com/sketch -->
    <title>2CB5704F-6CE6-49A1-B20B-247A3ABC0CE9</title>
    <desc>Created with sketchtool.</desc>
    <defs></defs>
    <g id="menu-opened" stroke="none" stroke-width="1" fill="none" fill-rule="evenodd" transform="translate(-22.000000, -394.000000)">
        <g id="menu-li" transform="translate(0.000000, 393.000000)" fill="#F3B52F" fill-rule="nonzero">
            <path d="M28,17 C26.9,17 26,17.9 26,19 C26,20.1 26.9,21 28,21 C29.1,21 30,20.1 30,19 C30,17.9 29.1,17 28,17 Z M22,1 L22,3 L24,3 L27.6,10.6 L26.2,13 C26.1,13.3 26,13.7 26,14 C26,15.1 26.9,16 28,16 L40,16 L40,14 L28.4,14 C28.3,14 28.2,13.9 28.2,13.8 L28.2,13.6999608 L29.1,11.9999608 L36.5,11.9999608 C37.3,11.9999608 37.9,11.5999608 38.2,10.9999608 L41.8,4.5 C42,4.3 42,4.2 42,4 C42,3.4 41.6,3 41,3 L26.2,3 L25.3,1 L22,1 Z M38,17 C36.9,17 36,17.9 36,19 C36,20.1 36.9,21 38,21 C39.1,21 40,20.1 40,19 C40,17.9 39.1,17 38,17 Z" id="basket-icon2"></path>
        </g>
    </g>
</svg>