<?xml version="1.0" encoding="UTF-8" standalone="no"?>
<svg width="20px" height="16px" viewBox="0 0 20 16" version="1.1" xmlns="http://www.w3.org/2000/svg" xmlns:xlink="http://www.w3.org/1999/xlink">
    <!-- Generator: sketchtool 48.1 (47250) - http://www.bohemiancoding.com/sketch -->
    <title>D5D0B8B6-1EB6-4E9E-92AB-337A4DEC16E2</title>
    <desc>Created with sketchtool.</desc>
    <defs></defs>
    <g id="menu-opened" stroke="none" stroke-width="1" fill="none" fill-rule="evenodd" transform="translate(-22.000000, -278.000000)">
        <g id="menu-li" transform="translate(0.000000, 275.000000)" fill="#F3B52F" fill-rule="nonzero">
            <path d="M22,10.0506912 L27.875576,10.0506912 L27.875576,3 L22,3 L22,10.0506912 Z M22,18.2764977 L27.875576,18.2764977 L27.875576,11.2258065 L22,11.2258065 L22,18.2764977 Z M29.0506912,18.2764977 L34.9262673,18.2764977 L34.9262673,11.2258065 L29.0506912,11.2258065 L29.0506912,18.2764977 Z M36.1013825,18.2764977 L41.9769585,18.2764977 L41.9769585,11.2258065 L36.1013825,11.2258065 L36.1013825,18.2764977 Z M29.0506912,10.0506912 L34.9262673,10.0506912 L34.9262673,3 L29.0506912,3 L29.0506912,10.0506912 Z M36.1013825,3 L36.1013825,10.0506912 L41.9769585,10.0506912 L41.9769585,3 L36.1013825,3 Z" id="catalog-icon"></path>
        </g>
    </g>
</svg>