<?xml version="1.0" encoding="UTF-8" standalone="no"?>
<svg width="20px" height="20px" viewBox="0 0 20 20" version="1.1" xmlns="http://www.w3.org/2000/svg" xmlns:xlink="http://www.w3.org/1999/xlink">
    <!-- Generator: sketchtool 48.1 (47250) - http://www.bohemiancoding.com/sketch -->
    <title>E69F17EA-1AF5-469B-9CA2-C0DFE945677A</title>
    <desc>Created with sketchtool.</desc>
    <defs></defs>
    <g id="menu-opened" stroke="none" stroke-width="1" fill="none" fill-rule="evenodd" transform="translate(-22.000000, -89.000000)">
        <g id="menu-li" transform="translate(0.000000, 66.000000)" fill="#F3B52F" fill-rule="nonzero">
            <path d="M32,29.3636364 C30,29.3636364 28.3636364,31 28.3636364,33 C28.3636364,35 30,36.6363636 32,36.6363636 C34,36.6363636 35.6363636,35 35.6363636,33 C35.6363636,31 34,29.3636364 32,29.3636364 Z M40.0909091,32.0909091 C39.6363636,28.2727273 36.6363636,25.2727273 32.9090909,24.9090909 L32.9090909,23 L31.0909091,23 L31.0909091,24.9090909 C27.2727273,25.2727273 24.2727273,28.2727273 23.9090909,32.0909091 L22,32.0909091 L22,33.9090909 L23.9090909,33.9090909 C24.3636364,37.7272727 27.3636364,40.7272727 31.0909091,41.0909091 L31.0909091,43 L32.9090909,43 L32.9090909,41.0909091 C36.7272727,40.6363636 39.7272727,37.6363636 40.0909091,33.9090909 L42,33.9090909 L42,32.0909091 L40.0909091,32.0909091 Z M32,39.3636364 C28.4545455,39.3636364 25.6363636,36.5454545 25.6363636,33 C25.6363636,29.4545455 28.4545455,26.6363636 32,26.6363636 C35.5454545,26.6363636 38.3636364,29.4545455 38.3636364,33 C38.3636364,36.5454545 35.5454545,39.3636364 32,39.3636364 Z" id="geo-icon"></path>
        </g>
    </g>
</svg>