<?xml version="1.0" encoding="UTF-8" standalone="no"?>
<svg width="16px" height="20px" viewBox="0 0 16 20" version="1.1" xmlns="http://www.w3.org/2000/svg" xmlns:xlink="http://www.w3.org/1999/xlink">
    <!-- Generator: sketchtool 48.1 (47250) - http://www.bohemiancoding.com/sketch -->
    <title>E893E7A8-25DA-4EF8-86C2-495E37AFCD74</title>
    <desc>Created with sketchtool.</desc>
    <defs></defs>
    <g id="menu-opened" stroke="none" stroke-width="1" fill="none" fill-rule="evenodd" transform="translate(-24.000000, -213.000000)">
        <g id="menu-li" transform="translate(0.000000, 213.000000)" fill="#F3B52F" fill-rule="nonzero">
            <path d="M37.3488806,6.66044776 L36.3973881,6.66044776 L36.3973881,4.75746269 C36.3973881,2.09328358 34.3041045,0 31.6399254,0 C28.9757463,0 26.8824627,2.09328358 26.8824627,4.75746269 L26.8824627,6.66044776 L25.9309701,6.66044776 C24.8843284,6.66044776 24.0279851,7.51679104 24.0279851,8.56343284 L24.0279851,18.0783582 C24.0279851,19.125 24.8843284,19.9813433 25.9309701,19.9813433 L37.3488806,19.9813433 C38.3955224,19.9813433 39.2518657,19.125 39.2518657,18.0783582 L39.2518657,8.56343284 C39.2518657,7.51679104 38.3955224,6.66044776 37.3488806,6.66044776 Z M31.6399254,15.2238806 C30.5932836,15.2238806 29.7369403,14.3675373 29.7369403,13.3208955 C29.7369403,12.2742537 30.5932836,11.4179104 31.6399254,11.4179104 C32.6865672,11.4179104 33.5429104,12.2742537 33.5429104,13.3208955 C33.5429104,14.3675373 32.6865672,15.2238806 31.6399254,15.2238806 Z M34.5895522,6.66044776 L28.6902985,6.66044776 L28.6902985,4.75746269 C28.6902985,3.13992537 30.0223881,1.80783582 31.6399254,1.80783582 C33.2574627,1.80783582 34.5895522,3.13992537 34.5895522,4.75746269 L34.5895522,6.66044776 Z" id="login-icon"></path>
        </g>
    </g>
</svg>