<?xml version="1.0" encoding="UTF-8" standalone="no"?>
<svg width="20px" height="20px" viewBox="0 0 20 20" version="1.1" xmlns="http://www.w3.org/2000/svg" xmlns:xlink="http://www.w3.org/1999/xlink">
    <!-- Generator: Sketch 49 (51002) - http://www.bohemiancoding.com/sketch -->
    <title>phone-icon</title>
    <desc>Created with Sketch.</desc>
    <defs></defs>
    <g id="espartos" stroke="none" stroke-width="1" fill="none" fill-rule="evenodd">
        <g id="menu-opened" transform="translate(-22.000000, -153.000000)" fill="#F3B52F" fill-rule="nonzero">
            <g id="menu-li" transform="translate(0.000000, 150.000000)">
                <path d="M40.8888889,16.8888889 C39.5555556,16.8888889 38.2222222,16.6666667 36.8888889,16.2222222 C36.5555556,16.1111111 36.1110675,16.2222222 35.7777778,16.4444444 L33.3333333,18.8888889 C30.2222658,17.3333333 27.6666667,14.6666667 26,11.5555556 L28.4444444,9.11111111 C28.7777778,8.77777778 28.8888889,8.33333333 28.6666667,8 C28.3333333,6.77777778 28.1111111,5.44444444 28.1111111,4.11111111 C28.1111111,3.44444444 27.6666667,3 27,3 L23.1111111,3 C22.4444444,3 22,3.44444444 22,4.11111111 C22,14.5555556 30.4444444,23 40.8888889,23 C41.5555556,23 42,22.5555556 42,21.8888889 L42,18 C42,17.3333333 41.5555556,16.8888889 40.8888889,16.8888889 Z M39.7777778,13 L42,13 C42,7.44444444 37.5555556,3 32,3 L32,5.22222222 C36.3333333,5.22222222 39.7777778,8.66666667 39.7777778,13 Z M35.3333333,13 L37.5555556,13 C37.5555556,9.88888889 35.1111111,7.44444444 32,7.44444444 L32,9.66666667 C33.8888889,9.66666667 35.3333333,11.1111111 35.3333333,13 Z" id="phone-icon"></path>
            </g>
        </g>
    </g>
</svg>