<?xml version="1.0"?>
<svg xmlns="http://www.w3.org/2000/svg" xmlns:xlink="http://www.w3.org/1999/xlink" version="1.1" viewBox="0 0 224 224" width="20px" height="20px"><g fill="none" fill-rule="nonzero" stroke="none" stroke-width="1" stroke-linecap="butt" stroke-linejoin="miter" stroke-miterlimit="10" stroke-dasharray="" stroke-dashoffset="0" font-family="none" font-weight="none" font-size="none" text-anchor="none" style="mix-blend-mode: normal"><path d="M0,224v-224h224v224z" fill="none"/><g fill="#f3b52f"><path d="M29.86667,37.33333c-8.25067,0 -14.93333,6.68267 -14.93333,14.93333v119.46667c0,8.25067 6.68267,14.93333 14.93333,14.93333h164.26667c8.25067,0 14.93333,-6.68267 14.93333,-14.93333v-119.46667c0,-8.25067 -6.68267,-14.93333 -14.93333,-14.93333zM171.73333,59.73333c8.25067,0 14.93333,6.68267 14.93333,14.93333c0,8.25067 -6.68267,14.93333 -14.93333,14.93333c-8.25067,0 -14.93333,-6.68267 -14.93333,-14.93333c0,-8.25067 6.68267,-14.93333 14.93333,-14.93333zM67.2,89.61458c4.62373,0 9.247,1.76575 12.775,5.29375l24.35416,24.35416l7.67084,7.67084l8.63333,8.63333c3.15093,3.15093 8.23865,3.12177 11.38959,-0.02916c3.1584,-3.15093 3.1584,-8.27493 0,-11.43333l-8.60417,-8.58959l5.67291,-5.67291c7.05601,-7.05601 18.494,-7.05601 25.55001,0l32.025,32.025v22.4h-149.33333v-52.26667l17.09167,-17.09166c3.528,-3.52801 8.15127,-5.29375 12.775,-5.29375z"/></g></g></svg>
