<?xml version="1.0" encoding="UTF-8" standalone="no"?>
<svg width="18px" height="24px" viewBox="0 0 18 24" version="1.1" xmlns="http://www.w3.org/2000/svg" xmlns:xlink="http://www.w3.org/1999/xlink">
    <!-- Generator: sketchtool 48.1 (47250) - http://www.bohemiancoding.com/sketch -->
    <title>59BCAA23-896D-4B92-BF8B-F9CCE91699C8</title>
    <desc>Created with sketchtool.</desc>
    <defs></defs>
    <g id="basket" stroke="none" stroke-width="1" fill="none" fill-rule="evenodd" transform="translate(-340.000000, -316.000000)">
        <g id="Group" transform="translate(0.000000, 316.000000)" fill="#FD6B6B" fill-rule="nonzero">
            <g id="rubbish-bin" transform="translate(340.000000, 0.000000)">
                <path d="M2.09768215,22.8137311 C2.1247335,23.4597946 2.65637164,23.9696626 3.30290465,23.9696626 L14.5641858,23.9696626 C15.2107188,23.9696626 15.742357,23.4597946 15.7694083,22.8137311 L16.5736137,5.83675306 L1.29347677,5.83675306 L2.09768215,22.8137311 Z M11.480978,10.0535355 C11.480978,9.783022 11.7003227,9.56361858 11.9709535,9.56361858 L12.754621,9.56361858 C13.0250758,9.56361858 13.2445966,9.78296333 13.2445966,10.0535355 L13.2445966,19.7528802 C13.2445966,20.0234523 13.0252518,20.2427971 12.754621,20.2427971 L11.9709535,20.2427971 C11.7004401,20.2427971 11.480978,20.0235697 11.480978,19.7528802 L11.480978,10.0535355 Z M8.05179462,10.0535355 C8.05179462,9.783022 8.27113936,9.56361858 8.54171149,9.56361858 L9.32537897,9.56361858 C9.59583374,9.56361858 9.81529584,9.78296333 9.81529584,10.0535355 L9.81529584,19.7528802 C9.81529584,20.0234523 9.59600978,20.2427971 9.32537897,20.2427971 L8.54171149,20.2427971 C8.27119804,20.2427971 8.05179462,20.0235697 8.05179462,19.7528802 L8.05179462,10.0535355 Z M4.62249389,10.0535355 C4.62249389,9.783022 4.84183863,9.56361858 5.11241076,9.56361858 L5.89613692,9.56361858 C6.16665037,9.56361858 6.38605379,9.78296333 6.38605379,10.0535355 L6.38605379,19.7528802 C6.38605379,20.0234523 6.16670905,20.2427971 5.89613692,20.2427971 L5.11241076,20.2427971 C4.84189731,20.2427971 4.62249389,20.0235697 4.62249389,19.7528802 L4.62249389,10.0535355 Z" id="Shape"></path>
                <path d="M17.109066,1.23479707 L11.9138582,1.23479707 L11.9138582,0.252616137 C11.9138582,0.113134474 11.8007824,0 11.6612421,0 L6.20573105,0 C6.06624939,0 5.95317359,0.113134474 5.95317359,0.252616137 L5.95317359,1.23473839 L0.75790709,1.23473839 C0.339814181,1.23473839 0.000938875306,1.57367237 0.000938875306,1.99176528 L0.000938875306,4.36987775 L17.8660342,4.36987775 L17.8660342,1.99182396 C17.8660342,1.57373105 17.5271589,1.23479707 17.109066,1.23479707 Z" id="Shape"></path>
            </g>
        </g>
    </g>
</svg>