<?xml version="1.0" encoding="UTF-8" standalone="no"?>
<svg width="15px" height="20px" viewBox="0 0 15 20" version="1.1" xmlns="http://www.w3.org/2000/svg" xmlns:xlink="http://www.w3.org/1999/xlink">
    <!-- Generator: sketchtool 48.1 (47250) - http://www.bohemiancoding.com/sketch -->
    <title>B589EE06-2C3C-4434-875C-DDF177C5C6C3</title>
    <desc>Created with sketchtool.</desc>
    <defs></defs>
    <g id="menu-opened" stroke="none" stroke-width="1" fill="none" fill-rule="evenodd" transform="translate(-24.000000, -335.000000)">
        <g id="menu-li" transform="translate(0.000000, 334.000000)" fill="#F3B52F" fill-rule="nonzero">
            <path d="M33,1 C33,1 33.6,3.5 33.6,5.5 C33.6,7.4 32.3000392,9 30.4,9 C28.4999608,9 27,7.4 27,5.5 L27,5.2 C25.1,7.5 24,10.4 24,13.5 C24,17.6 27.4,21 31.5,21 C35.6,21 39,17.6 39,13.5 C39,8.4 36.7,3.9 33,1 Z M32.2,18 C30.3866667,18 29,16.7317073 29,15.1707317 C29,13.7073171 30.0666667,12.6341463 31.7733333,12.3414634 C33.5867085,12.0488187 35.4,11.2682927 36.36,10 C36.7866667,11.1707317 37,12.4390244 37,13.7073171 C37,16.0487805 34.8666667,18 32.2,18 Z" id="sale-icon"></path>
        </g>
    </g>
</svg>