<?xml version="1.0" encoding="UTF-8" standalone="no"?>
<svg
   xmlns:dc="http://purl.org/dc/elements/1.1/"
   xmlns:cc="http://creativecommons.org/ns#"
   xmlns:rdf="http://www.w3.org/1999/02/22-rdf-syntax-ns#"
   xmlns:svg="http://www.w3.org/2000/svg"
   xmlns="http://www.w3.org/2000/svg"
   id="svg8"
   version="1.1"
   viewBox="0 0 2.3812499 3.1750001"
   height="12"
   width="9">
  <defs
     id="defs2" />
  <metadata
     id="metadata5">
    <rdf:RDF>
      <cc:Work
         rdf:about="">
        <dc:format>image/svg+xml</dc:format>
        <dc:type
           rdf:resource="http://purl.org/dc/dcmitype/StillImage" />
        <dc:title></dc:title>
      </cc:Work>
    </rdf:RDF>
  </metadata>
  <g
     transform="translate(0,-293.82498)"
     id="layer1">
    <path
       id="path4499"
       transform="matrix(0.26458333,0,0,0.26458333,0,293.82498)"
       d="M 4.5 0 C 4.5 0 0 1.8874016e-005 0 4.5 C 0 8.9999811 4.5 12 4.5 12 C 4.5 12 9 8.9999811 9 4.5 C 9 1.8874016e-005 4.5 0 4.5 0 z M 4.5 2 A 2.4999999 2.4999999 0 0 1 7 4.5 A 2.4999999 2.4999999 0 0 1 4.5 7 A 2.4999999 2.4999999 0 0 1 2 4.5 A 2.4999999 2.4999999 0 0 1 4.5 2 z "
       style="fill:#1dbaaf;fill-opacity:1;stroke:none;stroke-width:0.99999994px;stroke-linecap:butt;stroke-linejoin:miter;stroke-opacity:1" />
  </g>
</svg>
