<?xml version="1.0" encoding="utf-8"?>
<!-- Generator: Adobe Illustrator 21.0.0, SVG Export Plug-In . SVG Version: 6.00 Build 0)  -->
<svg version="1.1" id="Capa_1" xmlns="http://www.w3.org/2000/svg" xmlns:xlink="http://www.w3.org/1999/xlink" x="0px" y="0px"
	 viewBox="0 0 40 35.6" style="enable-background:new 0 0 40 35.6;" xml:space="preserve">
<style type="text/css">
	.st0{fill:#1DBAAF;}
</style>
<g>
	<g>
		<path class="st0" d="M5.5,18.4c-0.4,0-0.8,0.4-0.8,0.8C4.7,19.6,5,20,5.5,20s0.8-0.4,0.8-0.8C6.3,18.8,5.9,18.4,5.5,18.4z"/>
	</g>
</g>
<g>
	<g>
		<path class="st0" d="M40,21.2c0-1.1-0.5-2.1-1.3-2.7c1-0.8,1.5-2.1,1.3-3.3c-0.3-1.7-1.8-2.9-3.6-2.9c-0.9,0-6.5,0-7.4,0l0.2-0.7
			c1.3-4,0.1-8.2-2.8-10.7c-1.6-1.4-4.4-0.9-5.3,1.4C21,2.3,21,2.5,21,2.7c0.6,2.1,0.7,3.5,0,4.8c-0.6,1.4-2,2.8-4.7,4.9
			c-0.6,0.5-1.2,0.8-1.7,1.1c-0.8,0.5-1.6,0.9-2.5,1.9H9.4v-0.8c0-0.4-0.3-0.8-0.8-0.8H0.8c-0.4,0-0.8,0.3-0.8,0.8v20.3
			c0,0.4,0.3,0.8,0.8,0.8h7.8c0.4,0,0.8-0.3,0.8-0.8v-2.3h4.4c2.3,2,5.2,3.1,8.2,3.1c1.8,0,7.8,0,9.8,0c1.9,0,3.5-1.6,3.5-3.5
			c0-0.7-0.2-1.4-0.6-2h0.2c1.9,0,3.5-1.6,3.5-3.5c0-0.8-0.3-1.6-0.7-2.2C39,24,40,22.7,40,21.2z M7.8,34.1H1.6V15.3h6.3V34.1z
			 M36.5,23.1c-0.8,0-6.7,0-7.5,0c-0.4,0-0.8,0.3-0.8,0.8c0,0.4,0.3,0.8,0.8,0.8h5.9c1.1,0,2,0.9,2,2c0,1.1-0.9,2-2,2
			c-2.2,0-4.1,0-5.9,0c-0.4,0-0.8,0.3-0.8,0.8c0,0.4,0.3,0.8,0.8,0.8h2.8c1.1,0,2,0.9,2,2c0,1.1-0.9,2-2,2c-2,0-8.1,0-9.8,0
			c-2.8,0-5.4-1-7.4-2.9c-0.1-0.1-0.3-0.2-0.5-0.2H9.4V16.9h3.2c0.2,0,0.5-0.1,0.6-0.3c0.7-1,1.3-1.3,2.2-1.8
			c0.6-0.3,1.2-0.6,1.9-1.2c5.3-4.1,6.6-6.7,5.3-11.1c0.5-1,1.8-1.3,2.7-0.5c2.5,2.2,3.4,5.7,2.3,9l-0.4,1.2h-1
			c-0.4,0-0.8,0.3-0.8,0.8s0.3,0.8,0.8,0.8c1.2,0,8.9,0,10.1,0c1,0,1.9,0.7,2.1,1.6c0.2,1.2-0.8,2.3-1.9,2.3c-0.8,0-6.7,0-7.5,0
			c-0.4,0-0.8,0.3-0.8,0.8c0,0.4,0.3,0.8,0.8,0.8c0.8,0,6.7,0,7.5,0c1.1,0,2,0.9,2,2C38.4,22.2,37.6,23.1,36.5,23.1z"/>
	</g>
</g>
<g>
	<g>
		<path class="st0" d="M5.5,21.6c-0.4,0-0.8,0.3-0.8,0.8v7.8c0,0.4,0.3,0.8,0.8,0.8s0.8-0.3,0.8-0.8v-7.8
			C6.3,21.9,5.9,21.6,5.5,21.6z"/>
	</g>
</g>
</svg>
