<?xml version="1.0" encoding="UTF-8" standalone="no"?><svg xmlns:dc="http://purl.org/dc/elements/1.1/" xmlns:cc="http://creativecommons.org/ns#" xmlns:rdf="http://www.w3.org/1999/02/22-rdf-syntax-ns#" xmlns:svg="http://www.w3.org/2000/svg" xmlns="http://www.w3.org/2000/svg" id="svg8" width="10.000015" viewBox="0 0 7.5000112 7.5034037" version="1.0" preserveAspectRatio="xMidYMid meet" height="10.004539"><metadata id="metadata14"><rdf:RDF><cc:Work rdf:about=""><dc:format>image/svg+xml</dc:format><dc:type rdf:resource="http://purl.org/dc/dcmitype/StillImage" /><dc:title></dc:title></cc:Work></rdf:RDF></metadata><defs id="defs12" /><g style="fill:#1dbaaf;fill-opacity:1;stroke:none" id="g6" transform="matrix(0.00159876,0,0,-0.00159876,-0.343106,7.8471368)"><path style="fill:#1dbaaf;fill-opacity:1" id="path2" d="M 2285,4898 C 1974,4863 1602,4733 1330,4565 1110,4428 858,4204 708,4010 452,3679 291,3298 228,2875 208,2739 211,2363 233,2220 336,1555 704,975 1260,604 c 287,-191 623,-320 966,-371 164,-24 504,-24 668,0 411,61 815,237 1136,494 459,368 764,897 857,1485 25,159 25,537 0,696 -83,524 -329,995 -708,1356 -370,352 -861,581 -1361,635 -114,13 -419,12 -533,-1 z m 420,-792 c 250,-67 449,-181 622,-358 223,-227 338,-463 379,-778 46,-355 -38,-680 -253,-978 -16,-23 -15,-25 274,-315 l 291,-292 31,-79 c 35,-88 36,-75 -21,-221 -23,-57 -60,-89 -124,-103 -43,-10 -130,-1 -178,17 -15,6 -168,151 -339,322 l -311,310 -95,-44 c -116,-53 -135,-60 -231,-86 -132,-34 -221,-45 -370,-45 -220,1 -387,36 -567,119 -252,116 -512,373 -642,633 -42,84 -97,251 -110,332 -6,36 -14,83 -18,105 -3,22 -6,94 -6,160 1,375 144,702 427,972 153,147 338,257 526,313 133,40 221,50 425,46 166,-4 202,-7 290,-30 z" /><path style="fill:#1dbaaf;fill-opacity:1" id="path4" d="m 2140,3770 c -293,-64 -530,-249 -662,-521 -74,-150 -98,-265 -98,-456 1,-272 73,-463 251,-656 219,-239 518,-353 836,-319 227,24 405,108 576,271 176,168 268,333 302,546 44,266 -21,540 -177,750 -157,210 -365,343 -611,390 -109,21 -309,18 -417,-5 z m 378,-607 2,-233 h 225 225 v -150 -150 h -225 -225 l -2,-237 -3,-238 h -155 -155 l -6,200 c -4,110 -7,217 -8,238 l -1,37 h -230 -230 v 150 150 h 235 235 v 219 c 0,121 3,227 6,235 6,14 26,16 158,14 l 151,-3 z" /></g></svg> 