<?xml version="1.0" encoding="UTF-8" standalone="no"?>
<svg
   xmlns:dc="http://purl.org/dc/elements/1.1/"
   xmlns:cc="http://creativecommons.org/ns#"
   xmlns:rdf="http://www.w3.org/1999/02/22-rdf-syntax-ns#"
   xmlns:svg="http://www.w3.org/2000/svg"
   xmlns="http://www.w3.org/2000/svg"
   id="svg6"
   version="1.1"
   width="448pt"
   viewBox="0 -56 448 448"
   height="448pt">
  <metadata
     id="metadata12">
    <rdf:RDF>
      <cc:Work
         rdf:about="">
        <dc:format>image/svg+xml</dc:format>
        <dc:type
           rdf:resource="http://purl.org/dc/dcmitype/StillImage" />
        <dc:title></dc:title>
      </cc:Work>
    </rdf:RDF>
  </metadata>
  <defs
     id="defs10" />
  <path
     style="fill:#f3b52f;fill-opacity:1"
     id="path2"
     d="m0 336h448v-336h-448zm8-320c0-4.417969 3.582031-8 8-8h416c4.417969 0 8 3.582031 8 8v304c0 4.417969-3.582031 8-8 8h-416c-4.417969 0-8-3.582031-8-8zm0 0" />
  <path
     style="fill:#f3b52f;fill-opacity:1"
     id="path4"
     d="m424 24h-400v288h400zm-85.65625 10.34375c3.125-3.121094 8.1875-3.121094 11.3125 0l32 32c2.078125 2.007812 2.914062 4.984375 2.179688 7.78125-.730469 2.796875-2.914063 4.980469-5.710938 5.710938-2.796875.734374-5.773438-.101563-7.78125-2.179688l-32-32c-3.121094-3.125-3.121094-8.1875 0-11.3125zm59.3125 107.3125c-3.125 3.121094-8.1875 3.121094-11.3125 0l-80-80c-3.03125-3.140625-2.988281-8.128906.097656-11.214844 3.085938-3.085937 8.074219-3.128906 11.214844-.097656l80 80c3.121094 3.125 3.121094 8.1875 0 11.3125zm16-32c-3.125 3.121094-8.1875 3.121094-11.3125 0l-16-16c-3.03125-3.140625-2.988281-8.128906.097656-11.214844 3.085938-3.085937 8.074219-3.128906 11.214844-.097656l16 16c3.121094 3.125 3.121094 8.1875 0 11.3125zm0 0" />
</svg>
