<?xml version="1.0" encoding="UTF-8" standalone="no"?>
<svg
   xmlns:dc="http://purl.org/dc/elements/1.1/"
   xmlns:cc="http://creativecommons.org/ns#"
   xmlns:rdf="http://www.w3.org/1999/02/22-rdf-syntax-ns#"
   xmlns:svg="http://www.w3.org/2000/svg"
   xmlns="http://www.w3.org/2000/svg"
   id="svg16"
   version="1.1"
   width="512pt"
   viewBox="-65 0 512 512"
   height="512pt">
  <metadata
     id="metadata22">
    <rdf:RDF>
      <cc:Work
         rdf:about="">
        <dc:format>image/svg+xml</dc:format>
        <dc:type
           rdf:resource="http://purl.org/dc/dcmitype/StillImage" />
        <dc:title></dc:title>
      </cc:Work>
    </rdf:RDF>
  </metadata>
  <defs
     id="defs20" />
  <path
     style="fill:#f3b52f;fill-opacity:1"
     id="path2"
     d="m24.699219 358.996094h332.601562c8.285157 0 15-6.714844 15-15 0-8.28125-6.714843-15-15-15h-10.300781v-48.683594c-4.085938-1.292969-8-2.777344-11.800781-4.234375-7.875-3.011719-15.3125-5.859375-21.917969-5.859375-3.921875 0-9.019531 2.207031-14.417969 4.546875-7.59375 3.289063-16.203125 7.015625-26.34375 7.015625-10.136719 0-18.746093-3.726562-26.339843-7.015625-5.398438-2.339844-10.496094-4.546875-14.417969-4.546875s-9.023438 2.207031-14.417969 4.546875c-7.597656 3.289063-16.203125 7.015625-26.34375 7.015625-10.136719 0-18.746094-3.726562-26.339844-7.015625-5.398437-2.339844-10.496094-4.546875-14.417968-4.546875-3.921876 0-9.023438 2.207031-14.417969 4.546875-7.59375 3.289063-16.203125 7.015625-26.34375 7.015625s-18.746094-3.726562-26.339844-7.015625c-5.398437-2.339844-10.496094-4.546875-14.417969-4.546875-6.601562 0-14.042968 2.847656-21.917968 5.859375-3.800782 1.457031-7.714844 2.941406-11.804688 4.234375v48.683594h-10.300781c-8.28125 0-15 6.71875-15 15 0 8.285156 6.71875 15 15 15zm0 0" />
  <path
     style="fill:#f3b52f;fill-opacity:1"
     id="path4"
     d="m109.5 163c8.273438 0 15-6.730469 15-15 0-8.273438-6.726562-15-15-15-8.269531 0-15 6.726562-15 15 0 8.269531 6.730469 15 15 15zm0 0" />
  <path
     style="fill:#f3b52f;fill-opacity:1"
     id="path6"
     d="m68.722656 240.21875c10.136719 0 18.746094 3.726562 26.339844 7.015625 5.398438 2.339844 10.496094 4.546875 14.417969 4.546875s9.019531-2.207031 14.417969-4.546875c7.59375-3.289063 16.203124-7.015625 26.34375-7.015625 10.136718 0 18.746093 3.726562 26.339843 7.015625 5.398438 2.339844 10.496094 4.546875 14.417969 4.546875s9.019531-2.207031 14.417969-4.546875c7.59375-3.289063 16.203125-7.015625 26.34375-7.015625 10.136719 0 18.746093 3.726562 26.339843 7.015625 5.398438 2.339844 10.496094 4.546875 14.417969 4.546875s9.019531-2.207031 14.417969-4.546875c7.597656-3.289063 16.203125-7.015625 26.34375-7.015625 12.148438 0 23.035156 4.167969 32.640625 7.84375.363281.136719.71875.273438 1.078125.410156v-165.738281c0-7.785156-6.714844-14.09375-15-14.09375h-282c-8.28125 0-15 6.308594-15 14.09375v165.738281c.363281-.136718.714844-.269531 1.078125-.410156 9.609375-3.675781 20.496094-7.84375 32.644531-7.84375zm40.777344-137.21875c24.816406 0 45 20.1875 45 45s-20.183594 45-45 45c-24.8125 0-45-20.1875-45-45s20.1875-45 45-45zm0 0" />
  <path
     style="fill:#f3b52f;fill-opacity:1"
     id="path8"
     d="m206 15c0-8.285156-6.714844-15-15-15-8.28125 0-15 6.714844-15 15v23.640625h30zm0 0" />
  <path
     style="fill:#f3b52f;fill-opacity:1"
     id="path10"
     d="m176 465c0 8.28125 6.71875 15 15 15 8.285156 0 15-6.71875 15-15v-76h-30zm0 0" />
  <path
     style="fill:#f3b52f;fill-opacity:1"
     id="path12"
     d="m379.992188 489.5-58.023438-100.5h-34.644531l66.683593 115.496094c2.78125 4.816406 7.820313 7.503906 13.003907 7.503906 2.546875 0 5.125-.648438 7.488281-2.011719 7.175781-4.140625 9.632812-13.316406 5.492188-20.488281zm0 0" />
  <path
     style="fill:#f3b52f;fill-opacity:1"
     id="path14"
     d="m2.011719 489.5c-4.140625 7.171875-1.683594 16.347656 5.492187 20.488281 2.359375 1.363281 4.9375 2.011719 7.484375 2.011719 5.183594 0 10.226563-2.691406 13.003907-7.503906l66.683593-115.496094h-34.640625zm0 0" />
</svg>
