<?xml version="1.0" encoding="UTF-8" standalone="no"?>
<svg
   xmlns:dc="http://purl.org/dc/elements/1.1/"
   xmlns:cc="http://creativecommons.org/ns#"
   xmlns:rdf="http://www.w3.org/1999/02/22-rdf-syntax-ns#"
   xmlns:svg="http://www.w3.org/2000/svg"
   xmlns="http://www.w3.org/2000/svg"
   xml:space="preserve"
   style="enable-background:new 0 0 411.904 411.904;"
   viewBox="0 0 411.904 411.904"
   y="0px"
   x="0px"
   id="Layer_1"
   version="1.1"><metadata
     id="metadata65"><rdf:RDF><cc:Work
         rdf:about=""><dc:format>image/svg+xml</dc:format><dc:type
           rdf:resource="http://purl.org/dc/dcmitype/StillImage" /><dc:title></dc:title></cc:Work></rdf:RDF></metadata><defs
     id="defs63" /><g
     style="fill:#f3b52f;fill-opacity:1"
     id="g28"><g
       style="fill:#f3b52f;fill-opacity:1"
       id="g26"><path
         style="fill:#f3b52f;fill-opacity:1"
         id="path2"
         d="M254.285,45.88V70.81c4.024-0.456,8.187-0.737,12.447-0.891V38.912C263.199,41.585,259.016,43.919,254.285,45.88z" /><path
         style="fill:#f3b52f;fill-opacity:1"
         id="path4"
         d="M204.636,31.181c15.329,0,27.761-3.077,27.761-6.881c0-3.804-12.426-6.881-27.761-6.881S176.876,20.5,176.876,24.3    C176.876,28.099,189.302,31.181,204.636,31.181z" /><path
         style="fill:#f3b52f;fill-opacity:1"
         id="path6"
         d="M272.86,109.763c15.329,0,27.761-3.077,27.761-6.881c0-3.804-12.426-6.881-27.761-6.881    c-15.329,0-27.761,3.082-27.761,6.881C245.1,106.68,257.526,109.763,272.86,109.763z" /><path
         style="fill:#f3b52f;fill-opacity:1"
         id="path8"
         d="M204.631,48.599c34.299,0,62.1-10.88,62.1-24.299c0-13.42-27.802-24.3-62.1-24.3s-62.1,10.88-62.1,24.3    C142.531,37.719,170.332,48.599,204.631,48.599z M204.636,12.293c21.166,0,38.328,5.376,38.328,12.006    c0,6.63-17.162,12.006-38.328,12.006c-21.171,0-38.328-5.376-38.328-12.006C166.308,17.669,183.47,12.293,204.636,12.293z" /><path
         style="fill:#f3b52f;fill-opacity:1"
         id="path10"
         d="M210.76,102.881c0,13.419,27.802,24.299,62.1,24.299s62.1-10.88,62.1-24.299s-27.802-24.299-62.1-24.299    C238.566,78.582,210.76,89.457,210.76,102.881z M272.86,90.875c21.171,0,38.328,5.376,38.328,12.006    c0,6.63-17.162,12.006-38.328,12.006c-21.171,0-38.328-5.376-38.328-12.006C234.532,96.251,251.694,90.875,272.86,90.875z" /><path
         style="fill:#f3b52f;fill-opacity:1"
         id="path12"
         d="M139.054,78.582c-34.299,0-62.1,10.88-62.1,24.299s27.802,24.299,62.1,24.299c34.299,0,62.101-10.88,62.101-24.299    C201.155,89.462,173.353,78.582,139.054,78.582z M139.054,114.888c-21.166-0.005-38.328-5.376-38.328-12.006    c0-6.63,17.162-12.006,38.328-12.006s38.328,5.376,38.328,12.006C177.382,109.512,160.22,114.888,139.054,114.888z" /><path
         style="fill:#f3b52f;fill-opacity:1"
         id="path14"
         d="M242.975,49.679c-11.771,3.169-25.236,4.71-38.339,4.71c-23.542,0-48.21-4.971-62.116-15.493v30.899    c16.676,0.333,32.399,3.062,44.57,7.823c9.134,3.579,15.048,7.798,18.852,11.991c0.343-0.374,0.701-0.748,1.075-1.121    c7.332-7.332,20.168-12.887,35.958-15.985V49.679z" /><path
         style="fill:#f3b52f;fill-opacity:1"
         id="path16"
         d="M210.749,117.478v264.929c0,13.399,27.802,24.294,62.101,24.294c0.527,0,1.024-0.046,1.551-0.051v0.077    c13.88,0.133,26.604,2.048,36.803,5.176V128.261c-11.771,3.169-25.237,4.71-38.339,4.71    C249.329,132.972,224.655,128,210.749,117.478z" /><path
         style="fill:#f3b52f;fill-opacity:1"
         id="path18"
         d="M76.943,117.478v264.929c0,13.399,27.802,24.294,62.1,24.294c0.527,0,1.024-0.046,1.551-0.051v0.077    c13.88,0.133,26.604,2.048,36.803,5.176V128.261c-11.771,3.169-25.236,4.71-38.339,4.71    C115.517,132.972,90.849,128,76.943,117.478z" /><path
         style="fill:#f3b52f;fill-opacity:1"
         id="path20"
         d="M322.514,396.948c7.782-4.06,12.447-9.088,12.447-14.551V117.489c-3.533,2.673-7.716,5.007-12.447,6.968V396.948z" /><path
         style="fill:#f3b52f;fill-opacity:1"
         id="path22"
         d="M139.054,96c-15.329,0-27.761,3.082-27.761,6.881c0,3.799,12.426,6.881,27.761,6.881    c15.334-0.005,27.761-3.082,27.761-6.881C166.815,99.082,154.388,96,139.054,96z" /><path
         style="fill:#f3b52f;fill-opacity:1"
         id="path24"
         d="M188.708,396.948c7.782-4.06,12.447-9.088,12.447-14.551V117.489c-3.533,2.673-7.711,5.013-12.447,6.973V396.948z" /></g></g><g
     id="g30" /><g
     id="g32" /><g
     id="g34" /><g
     id="g36" /><g
     id="g38" /><g
     id="g40" /><g
     id="g42" /><g
     id="g44" /><g
     id="g46" /><g
     id="g48" /><g
     id="g50" /><g
     id="g52" /><g
     id="g54" /><g
     id="g56" /><g
     id="g58" /></svg>