<?xml version="1.0" encoding="iso-8859-1"?>
<!-- Generator: Adobe Illustrator 21.0.0, SVG Export Plug-In . SVG Version: 6.00 Build 0)  -->
<svg xmlns="http://www.w3.org/2000/svg" xmlns:xlink="http://www.w3.org/1999/xlink" version="1.1" id="Capa_1" x="0px" y="0px" viewBox="0 0 512 512" style="enable-background:new 0 0 512 512;" xml:space="preserve" width="512" height="512">
<g>
	<path d="M328.526,179.715c-21.085-4.225-41.943-15.816-58.734-32.637C253,130.257,241.43,109.361,237.214,88.24   c-0.529-2.647-0.937-5.281-1.232-7.895L12.429,304.296c-20.754,20.79-14.954,59.171,13.202,87.379   c16.792,16.821,37.192,25.676,55.33,25.676c12.276,0,23.517-4.059,31.894-12.451l223.573-223.97   C333.796,180.635,331.158,180.242,328.526,179.715z"/>
	<path d="M221.026,481.599c2.812,2.818,6.628,4.401,10.606,4.401s7.794-1.583,10.606-4.401l40.134-40.206h-101.48L221.026,481.599z"/>
	<path d="M420.555,107.293c-0.015,15.597-4.242,30.448-12.813,42.972h55.709L420.555,107.293z"/>
	<path d="M507.612,194.504l-14.163-14.188H379.464l-35.155,35.217H507.81C513.458,209.651,513.399,200.301,507.612,194.504z"/>
	<polygon points="279.155,280.803 442.678,280.803 477.833,245.585 314.31,245.585  "/>
	<polygon points="214.001,346.073 377.524,346.073 412.68,310.854 249.157,310.854  "/>
	<polygon points="149.871,410.316 150.894,411.342 312.371,411.342 347.526,376.124 184.003,376.124  "/>
	<path d="M291.004,125.829c12.65,12.673,28.064,21.345,43.404,24.418c4.036,0.809,7.999,1.206,11.838,1.206   c12.612,0,23.888-4.29,31.981-12.398c20.753-20.791,14.954-59.171-13.202-87.378c-28.157-28.207-66.471-34.016-87.223-13.226   c-10.558,10.577-14.63,26.577-11.172,43.897C269.697,97.714,278.354,113.157,291.004,125.829z M306.102,66.764   c0.338-0.336,1.691-0.695,3.594-0.695c6.057,0,16.776,3.651,27.047,13.94c14.877,14.904,14.929,28.983,13.201,30.713   c-0.167,0.126-1.344,0.662-3.698,0.662c-1.234,0-2.578-0.144-3.995-0.427c-7.569-1.517-15.939-6.423-22.963-13.459   c-7.027-7.039-11.923-15.423-13.437-23.006C304.887,69.66,305.82,67.131,306.102,66.764z"/>
</g>















</svg>
