<svg xmlns="http://www.w3.org/2000/svg" width="50.09" height="50" viewBox="0 0 50.09 50"><defs><style>.a,.b{fill:none;}.b{stroke:#000;stroke-linecap:round;stroke-miterlimit:10;stroke-width:1.937px;}.c{fill:#fff;}</style></defs><g transform="translate(0.044)"><rect class="a" width="50" height="50"/><path class="b" d="M48.533,28.494,44.72,32.15l.43,5.266a1.513,1.513,0,0,1-1.088,1.578l-5.075,1.463-2.064,4.862a1.51,1.51,0,0,1-1.7.892L30.047,45.15,25.96,48.495a1.516,1.516,0,0,1-1.918,0L19.956,45.15l-5.18,1.061a1.509,1.509,0,0,1-1.7-.892l-2.064-4.862L5.94,38.994a1.517,1.517,0,0,1-1.088-1.578l.43-5.266L1.469,28.494a1.512,1.512,0,0,1-.232-1.9L4.066,22.13l-1.68-5.01a1.515,1.515,0,0,1,.681-1.791l4.578-2.64.842-5.214A1.513,1.513,0,0,1,9.92,6.2L15.2,5.995l3.168-4.227a1.516,1.516,0,0,1,1.862-.458L25,3.58l4.771-2.27a1.513,1.513,0,0,1,1.861.458L34.8,5.995,40.08,6.2a1.519,1.519,0,0,1,1.436,1.271l.842,5.214,4.578,2.64a1.517,1.517,0,0,1,.681,1.791l-1.679,5.01,2.828,4.462A1.515,1.515,0,0,1,48.533,28.494Z"/><path class="c" d="M15.715,22.574a8.9,8.9,0,0,1-.239-3.054,8.928,8.928,0,0,1,.239-3.054,3.433,3.433,0,0,1,3.443-2.305A3.431,3.431,0,0,1,22.6,16.466a8.856,8.856,0,0,1,.24,3.054,8.889,8.889,0,0,1-.24,3.054,3.432,3.432,0,0,1-3.442,2.305A3.433,3.433,0,0,1,15.715,22.574Zm5.059-.479a9.85,9.85,0,0,0,.15-2.575,9.911,9.911,0,0,0-.15-2.575A1.583,1.583,0,0,0,19.158,15.9a1.582,1.582,0,0,0-1.616,1.048,9.85,9.85,0,0,0-.15,2.575,9.911,9.911,0,0,0,.15,2.575,1.583,1.583,0,0,0,1.616,1.048A1.582,1.582,0,0,0,20.774,22.095Zm8.982-7.724a.486.486,0,0,1,.479-.3h1.437c.18,0,.239.15.15.3L20,34.789a.473.473,0,0,1-.449.3H18.11a.189.189,0,0,1-.18-.3Zm-2.844,15.3a8.911,8.911,0,0,1,.239-3.055,3.432,3.432,0,0,1,3.443-2.305,3.431,3.431,0,0,1,3.442,2.305,8.874,8.874,0,0,1,.239,3.055,8.9,8.9,0,0,1-.239,3.053,3.432,3.432,0,0,1-3.442,2.306,3.432,3.432,0,0,1-3.443-2.306A8.9,8.9,0,0,1,26.912,29.67Zm3.683,3.622a1.582,1.582,0,0,0,1.616-1.048,9.877,9.877,0,0,0,.149-2.574,9.943,9.943,0,0,0-.149-2.575,1.771,1.771,0,0,0-3.233,0,9.888,9.888,0,0,0-.149,2.575,9.931,9.931,0,0,0,.149,2.574A1.582,1.582,0,0,0,30.595,33.292Z"/></g></svg>