<svg xmlns="http://www.w3.org/2000/svg" width="42" height="46.104" viewBox="0 0 42 46.104"><g class="a" transform="translate(-4 -1)"><path d="M24.37,47.1h0A21.4,21.4,0,0,1,4,25C4,11.767,13.42,1,25,1,37.167,1,46,11.093,46,25c0,4.752-3.013,13.84-7.737,13.84-1.542,0-2.988-.971-4.3-2.886-1-1.461-2.072-2.3-2.94-2.3a1.6,1.6,0,0,0-1.228.682c-1.053,1.284-1.82,4.445-.816,9.466a2.256,2.256,0,0,1-.469,1.932C27.585,46.866,25.748,47.1,24.37,47.1ZM25,3C14.522,3,6,12.869,6,25,6,40.04,18.614,45.1,24.368,45.1h0c1.531,0,2.355-.342,2.6-.636a.276.276,0,0,0,.054-.271c-.969-4.846-.509-9.005,1.23-11.127a3.545,3.545,0,0,1,2.774-1.414c1.1,0,2.8.55,4.59,3.169.629.919,1.6,2.016,2.649,2.016C40.978,36.84,44,29.783,44,25,44,12.252,36.008,3,25,3Z"/><path d="M19,41a5,5,0,1,1,5-5A5.006,5.006,0,0,1,19,41Zm0-8a3,3,0,1,0,3,3A3,3,0,0,0,19,33Z"/><path d="M13.006,27h0a4,4,0,1,1,4-4,3.995,3.995,0,0,1-3.994,4Zm0-6A2,2,0,0,0,13,25l.006,1V25a2,2,0,0,0,0-4Z"/><path d="M18,18h0a4,4,0,1,1,4-4A3.995,3.995,0,0,1,18,18Zm0-6A2,2,0,0,0,18,16L18,17V16a2,2,0,0,0,0-4Z"/><path d="M27.006,14h0a4,4,0,1,1,4-4,3.995,3.995,0,0,1-3.994,4Zm0-6A2,2,0,0,0,27,12l.006,1V12a2,2,0,0,0,0-4Z"/><path d="M36,21h0a4,4,0,1,1,4-4A3.995,3.995,0,0,1,36,21Zm0-6A2,2,0,0,0,36,19L36,20V19a2,2,0,0,0,0-4Z"/></g></svg>