<svg xmlns="http://www.w3.org/2000/svg" width="38" height="46" viewBox="0 0 38 46"><defs><style>.a{opacity:0.21;}</style></defs><g class="a" transform="translate(-4 -2)"><path d="M36,16H12a4,4,0,0,1-4-4V6a4,4,0,0,1,4-4H36a4,4,0,0,1,4,4v6A4,4,0,0,1,36,16ZM12,4a2,2,0,0,0-2,2v6a2,2,0,0,0,2,2H36a2,2,0,0,0,2-2V6a2,2,0,0,0-2-2Z"/><rect width="3" height="2" transform="translate(39 8)"/><path d="M26,30H24V21a1,1,0,0,0-1-1H8a3.641,3.641,0,0,1-4-4V12A3.641,3.641,0,0,1,8,8H9v2H8c-1.439,0-2,.561-2,2v4c0,1.439.561,2,2,2H23a3,3,0,0,1,3,3Z"/><path d="M26,48H24a3,3,0,0,1-3-3V34c0-3.131,1.5-5,4-5s4,1.869,4,5V45A3,3,0,0,1,26,48ZM25,31c-.5,0-2,0-2,3V45a1,1,0,0,0,1,1h2a1,1,0,0,0,1-1V34C27,31,25.5,31,25,31Z"/></g></svg>