<svg xmlns="http://www.w3.org/2000/svg" width="44" height="44" viewBox="0 0 44 44"><defs><style>.a{opacity:0.21;}</style></defs><g class="a" transform="translate(0 -4)"><path d="M33,48H27a1,1,0,0,1-1-1V44H5a1,1,0,0,1-1-1V22H1a1,1,0,0,1-1-1V15a1,1,0,0,1,1-1H4V11a1,1,0,0,1,1-1h6a1,1,0,0,1,1,1v3H33a1,1,0,0,1,1,1V36h3a1,1,0,0,1,1,1v6a1,1,0,0,1-1,1H34v3A1,1,0,0,1,33,48Zm-5-2h4V43a1,1,0,0,1,1-1h3V38H33a1,1,0,0,1-1-1V16H11a1,1,0,0,1-1-1V12H6v3a1,1,0,0,1-1,1H2v4H5a1,1,0,0,1,1,1V42H27a1,1,0,0,1,1,1Zm-1-8H11a1,1,0,0,1-1-1V21a1,1,0,0,1,1-1H27a1,1,0,0,1,1,1V37A1,1,0,0,1,27,38ZM12,36H26V22H12Z"/><path d="M11,38a1,1,0,0,1-.707-1.707l16-16a1,1,0,0,1,1.414,1.414l-16,16A1,1,0,0,1,11,38Z"/><path d="M33,16a1,1,0,0,1-.707-1.707l10-10a1,1,0,0,1,1.414,1.414l-10,10A1,1,0,0,1,33,16Z"/><path d="M14,16H4a1,1,0,0,1,0-2H14a1,1,0,0,1,0,2Z"/><path d="M11,22H5a1,1,0,0,1,0-2h6a1,1,0,0,1,0,2Z"/><path d="M33,38H27a1,1,0,0,1,0-2h6a1,1,0,0,1,0,2Z"/><path d="M33,44H27a1,1,0,0,1,0-2h6a1,1,0,0,1,0,2Z"/></g></svg>