<svg xmlns="http://www.w3.org/2000/svg" width="40" height="48" viewBox="0 0 40 48"><defs><style>.a{opacity:0.21;}</style></defs><g class="a" transform="translate(-4)"><path d="M44,32H4V24a4,4,0,0,1,4-4H18.046a1,1,0,0,0,.929-1.371A13.552,13.552,0,0,1,18,13.569V6A6,6,0,0,1,30,6v7.569a13.551,13.551,0,0,1-.975,5.059A1,1,0,0,0,29.954,20H40a4,4,0,0,1,4,4ZM6,30H42V24a2,2,0,0,0-2-2H29.954a3,3,0,0,1-2.785-4.114A11.583,11.583,0,0,0,28,13.569V6a4,4,0,0,0-8,0v7.569a11.578,11.578,0,0,0,.831,4.316A3,3,0,0,1,18.046,22H8a2,2,0,0,0-2,2Z"/><path d="M41,48H16a1,1,0,0,1-1-1V43.236l-2.1,4.211A1,1,0,0,1,12,48H7a1,1,0,0,1-1-1V31a1,1,0,0,1,1-1H41a1,1,0,0,1,1,1V47A1,1,0,0,1,41,48ZM17,46H40V32H8V46h3.381l3.724-7.447A1,1,0,0,1,17,39Z"/><path d="M37,48a1,1,0,0,1-1-1V37a1,1,0,0,1,2,0V47A1,1,0,0,1,37,48Z"/><path d="M33,48a1,1,0,0,1-1-1V39a1,1,0,0,1,2,0v8A1,1,0,0,1,33,48Z"/><path d="M29,48a1,1,0,0,1-1-1V42a1,1,0,0,1,2,0v5A1,1,0,0,1,29,48Z"/><circle cx="2" cy="2" r="2" transform="translate(22 4)"/></g></svg>