<?xml version="1.0" encoding="UTF-8" standalone="no"?>
<svg
   xmlns:dc="http://purl.org/dc/elements/1.1/"
   xmlns:cc="http://creativecommons.org/ns#"
   xmlns:rdf="http://www.w3.org/1999/02/22-rdf-syntax-ns#"
   xmlns:svg="http://www.w3.org/2000/svg"
   xmlns="http://www.w3.org/2000/svg"
   height="50.001976"
   width="50"
   xml:space="preserve"
   viewBox="0 0 50.000003 50.001979"
   y="0px"
   x="0px"
   id="Capa_1"
   version="1.1"><metadata
   id="metadata47"><rdf:RDF><cc:Work
       rdf:about=""><dc:format>image/svg+xml</dc:format><dc:type
         rdf:resource="http://purl.org/dc/dcmitype/StillImage" /><dc:title></dc:title></cc:Work></rdf:RDF></metadata><defs
   id="defs45" />
<path
   id="path2"
   d="m 47.702857,25.002715 2.193684,-5.7217 c 0.240618,-0.63123 0.05312,-1.34684 -0.474985,-1.77495 l -4.756109,-3.85613 -0.962471,-6.0529502 c -0.106247,-0.66873 -0.631232,-1.19059 -1.299962,-1.29684 l -6.052945,-0.96247 -3.85301,-4.75922998 c -0.424988,-0.52811 -1.156216,-0.7156 -1.771823,-0.47499 L 25.000407,2.3002648 19.278702,0.10658482 c -0.634356,-0.24374 -1.34371,-0.05 -1.771823,0.47498 l -3.856135,4.75923998 -6.0529453,0.96247 c -0.6656052,0.10625 -1.1905896,0.63123 -1.2968364,1.29684 l -0.9624714,6.0529402 -4.75923346,3.85614 c -0.52498439,0.42498 -0.71560372,1.14059 -0.47498587,1.77182 l 2.19368473,5.7217 -2.19368473,5.72171 c -0.24374276,0.63123 -0.04999852,1.34683 0.47498587,1.77182 l 4.75923346,3.85301 0.9624714,6.05295 c 0.1062468,0.66873 0.6281063,1.19371 1.2968364,1.29996 l 6.0529453,0.96247 3.856135,4.75611 c 0.428113,0.53123 1.143716,0.71873 1.774948,0.47498 l 5.71858,-2.19056 5.721705,2.19369 c 0.181244,0.0688 0.368739,0.10312 0.559358,0.10312 0.459361,0 0.912473,-0.20312 1.215589,-0.58123 l 3.85301,-4.75611 6.052945,-0.96247 c 0.66873,-0.10625 1.193715,-0.63123 1.299962,-1.29996 l 0.962471,-6.05295 4.756109,-3.85301 c 0.528109,-0.42811 0.715603,-1.14059 0.474985,-1.77182 z"
   style="fill:#fb7d00;stroke-width:0.09765334;fill-opacity:1" />
<g
   transform="translate(-0.01022738,-462.03303)"
   id="g10">
	<path
   id="path4"
   d="m 20.323273,483.91084 c -2.584298,0 -4.687361,-2.10307 -4.687361,-4.68736 0,-2.5843 2.103063,-4.68736 4.687361,-4.68736 2.584298,0 4.687361,2.10306 4.687361,4.68736 0,2.58429 -2.103063,4.68736 -4.687361,4.68736 z m 0,-6.24982 c -0.862474,0 -1.562453,0.69998 -1.562453,1.56246 0,0.86247 0.699979,1.56245 1.562453,1.56245 0.862474,0 1.562454,-0.69998 1.562454,-1.56245 0,-0.86248 -0.69998,-1.56246 -1.562454,-1.56246 z"
   style="fill:#fafafa;stroke-width:0.09765334" />
	<path
   id="path6"
   d="m 29.697994,499.53537 c -2.584298,0 -4.68736,-2.10306 -4.68736,-4.68736 0,-2.5843 2.103062,-4.68736 4.68736,-4.68736 2.584298,0 4.687361,2.10306 4.687361,4.68736 0,2.5843 -2.103063,4.68736 -4.687361,4.68736 z m 0,-6.24981 c -0.859349,0 -1.562453,0.7031 -1.562453,1.56245 0,0.85935 0.703104,1.56245 1.562453,1.56245 0.85935,0 1.562454,-0.7031 1.562454,-1.56245 0,-0.85935 -0.703104,-1.56245 -1.562454,-1.56245 z"
   style="fill:#fafafa;stroke-width:0.09765334" />
	<path
   id="path8"
   d="m 17.198366,499.53537 c -0.315616,0 -0.631231,-0.0937 -0.906223,-0.29061 -0.703104,-0.50311 -0.865599,-1.47809 -0.362489,-2.18119 l 15.624535,-21.87435 c 0.50311,-0.7031 1.478081,-0.8656 2.181185,-0.36249 0.703104,0.49999 0.862475,1.47808 0.362489,2.17806 l -15.624535,21.87435 c -0.309366,0.42811 -0.787477,0.65623 -1.274962,0.65623 z"
   style="fill:#fafafa;stroke-width:0.09765334" />
</g>
<g
   transform="translate(-0.01022738,-462.03303)"
   id="g12">
</g>
<g
   transform="translate(-0.01022738,-462.03303)"
   id="g14">
</g>
<g
   transform="translate(-0.01022738,-462.03303)"
   id="g16">
</g>
<g
   transform="translate(-0.01022738,-462.03303)"
   id="g18">
</g>
<g
   transform="translate(-0.01022738,-462.03303)"
   id="g20">
</g>
<g
   transform="translate(-0.01022738,-462.03303)"
   id="g22">
</g>
<g
   transform="translate(-0.01022738,-462.03303)"
   id="g24">
</g>
<g
   transform="translate(-0.01022738,-462.03303)"
   id="g26">
</g>
<g
   transform="translate(-0.01022738,-462.03303)"
   id="g28">
</g>
<g
   transform="translate(-0.01022738,-462.03303)"
   id="g30">
</g>
<g
   transform="translate(-0.01022738,-462.03303)"
   id="g32">
</g>
<g
   transform="translate(-0.01022738,-462.03303)"
   id="g34">
</g>
<g
   transform="translate(-0.01022738,-462.03303)"
   id="g36">
</g>
<g
   transform="translate(-0.01022738,-462.03303)"
   id="g38">
</g>
<g
   transform="translate(-0.01022738,-462.03303)"
   id="g40">
</g>
</svg>