<?xml version="1.0" encoding="UTF-8" standalone="no"?>
<svg
   xmlns:dc="http://purl.org/dc/elements/1.1/"
   xmlns:cc="http://creativecommons.org/ns#"
   xmlns:rdf="http://www.w3.org/1999/02/22-rdf-syntax-ns#"
   xmlns:svg="http://www.w3.org/2000/svg"
   xmlns="http://www.w3.org/2000/svg"
   version="1.1"
   id="Capa_1"
   x="0px"
   y="0px"
   width="30"
   height="30"
   viewBox="0 0 30 30"
   xml:space="preserve"><metadata
     id="metadata41"><rdf:RDF><cc:Work
         rdf:about=""><dc:format>image/svg+xml</dc:format><dc:type
           rdf:resource="http://purl.org/dc/dcmitype/StillImage" /><dc:title></dc:title></cc:Work></rdf:RDF></metadata><defs
     id="defs39" /><g
     transform="matrix(0.31210012,0,0,0.31210012,0.0058548,0)"
     id="g4"
     style="fill:#1aa79c;fill-opacity:1"><path
       d="M 72.089,0.02 59.624,0 C 45.62,0 36.57,9.285 36.57,23.656 V 34.563 H 24.037 c -1.083,0 -1.96,0.878 -1.96,1.961 v 15.803 c 0,1.083 0.878,1.96 1.96,1.96 H 36.57 v 39.876 c 0,1.083 0.877,1.96 1.96,1.96 h 16.352 c 1.083,0 1.96,-0.878 1.96,-1.96 V 54.287 h 14.654 c 1.083,0 1.96,-0.877 1.96,-1.96 l 0.006,-15.803 c 0,-0.52 -0.207,-1.018 -0.574,-1.386 -0.367,-0.368 -0.867,-0.575 -1.387,-0.575 H 56.842 v -9.246 c 0,-4.444 1.059,-6.7 6.848,-6.7 l 8.397,-0.003 c 1.082,0 1.959,-0.878 1.959,-1.96 V 1.98 c 0,-1.081 -0.876,-1.958 -1.957,-1.96 z"
       id="path2"
       style="fill:#1aa79c;fill-opacity:1" /></g><g
     transform="translate(-22.077,-66.123)"
     id="g6" /><g
     transform="translate(-22.077,-66.123)"
     id="g8" /><g
     transform="translate(-22.077,-66.123)"
     id="g10" /><g
     transform="translate(-22.077,-66.123)"
     id="g12" /><g
     transform="translate(-22.077,-66.123)"
     id="g14" /><g
     transform="translate(-22.077,-66.123)"
     id="g16" /><g
     transform="translate(-22.077,-66.123)"
     id="g18" /><g
     transform="translate(-22.077,-66.123)"
     id="g20" /><g
     transform="translate(-22.077,-66.123)"
     id="g22" /><g
     transform="translate(-22.077,-66.123)"
     id="g24" /><g
     transform="translate(-22.077,-66.123)"
     id="g26" /><g
     transform="translate(-22.077,-66.123)"
     id="g28" /><g
     transform="translate(-22.077,-66.123)"
     id="g30" /><g
     transform="translate(-22.077,-66.123)"
     id="g32" /><g
     transform="translate(-22.077,-66.123)"
     id="g34" /></svg>