<svg xmlns="http://www.w3.org/2000/svg" width="272.538" height="115.684" viewBox="0 0 272.538 115.684"><g transform="translate(0 0)"><path class="a" d="M172.554,72.212a25.263,25.263,0,0,0,17.68,43.472,25.466,25.466,0,0,0,24.3-17.822A25.311,25.311,0,0,0,238,53.255a53.874,53.874,0,0,0,24.7-45.27A7.984,7.984,0,0,0,254.715,0,53.919,53.919,0,0,0,202.6,40.161a45.5,45.5,0,0,0-5.017-5.982A44.527,44.527,0,0,0,165.9,21.055h-5.631a7.984,7.984,0,0,0-7.984,7.984v5.629a44.668,44.668,0,0,0,20.273,37.544Zm13.738-26.74a28.626,28.626,0,0,1,8.346,17.938q-1.185-.1-2.35-.293a28.716,28.716,0,0,1-23.937-25.991,28.626,28.626,0,0,1,17.94,8.346Zm59.339-28.4a38.032,38.032,0,0,1-27.713,27.715,38.035,38.035,0,0,1,27.713-27.715Zm-12.1,57.339a9.465,9.465,0,1,1-9.465-9.336A9.412,9.412,0,0,1,233.53,74.408Zm-43.3,25.307a9.338,9.338,0,1,1,9.463-9.338,9.41,9.41,0,0,1-9.463,9.338Zm0,0" transform="translate(-71.222)"/><path class="a" d="M7.985,145.864H69.257a7.985,7.985,0,0,0,0-15.969H7.985a7.985,7.985,0,0,0,0,15.969Zm0,0" transform="translate(0 -60.752)"/><path class="a" d="M374.583,145.864h61.428a7.985,7.985,0,1,0,0-15.969H374.583a7.985,7.985,0,0,0,0,15.969Zm0,0" transform="translate(-171.458 -60.752)"/></g></svg>