<?xml version="1.0" ?><!DOCTYPE svg  PUBLIC '-//W3C//DTD SVG 20010904//EN'  'http://www.w3.org/TR/2001/REC-SVG-20010904/DTD/svg10.dtd'><svg height="512.000000pt" preserveAspectRatio="xMidYMid meet" version="1.0" viewBox="0 0 512.000000 512.000000" width="512.000000pt" xmlns="http://www.w3.org/2000/svg"><g fill="#000000" stroke="none" transform="translate(0.000000,512.000000) scale(0.100000,-0.100000)"><path d="M2285 4898 c-311 -35 -683 -165 -955 -333 -220 -137 -472 -361 -622 -555 -256 -331 -417 -712 -480 -1135 -20 -136 -17 -512 5 -655 103 -665 471 -1245 1027 -1616 287 -191 623 -320 966 -371 164 -24 504 -24 668 0 411 61 815 237 1136 494 459 368 764 897 857 1485 25 159 25 537 0 696 -83 524 -329 995 -708 1356 -370 352 -861 581 -1361 635 -114 13 -419 12 -533 -1z m420 -792 c250 -67 449 -181 622 -358 223 -227 338 -463 379 -778 46 -355 -38 -680 -253 -978 -16 -23 -15 -25 274 -315 l291 -292 31 -79 c35 -88 36 -75 -21 -221 -23 -57 -60 -89 -124 -103 -43 -10 -130 -1 -178 17 -15 6 -168 151 -339 322 l-311 310 -95 -44 c-116 -53 -135 -60 -231 -86 -132 -34 -221 -45 -370 -45 -220 1 -387 36 -567 119 -252 116 -512 373 -642 633 -42 84 -97 251 -110 332 -6 36 -14 83 -18 105 -3 22 -6 94 -6 160 1 375 144 702 427 972 153 147 338 257 526 313 133 40 221 50 425 46 166 -4 202 -7 290 -30z"/><path d="M2140 3770 c-293 -64 -530 -249 -662 -521 -74 -150 -98 -265 -98 -456 1 -272 73 -463 251 -656 219 -239 518 -353 836 -319 227 24 405 108 576 271 176 168 268 333 302 546 44 266 -21 540 -177 750 -157 210 -365 343 -611 390 -109 21 -309 18 -417 -5z m378 -607 l2 -233 225 0 225 0 0 -150 0 -150 -225 0 -225 0 -2 -237 -3 -238 -155 0 -155 0 -6 200 c-4 110 -7 217 -8 238 l-1 37 -230 0 -230 0 0 150 0 150 235 0 235 0 0 219 c0 121 3 227 6 235 6 14 26 16 158 14 l151 -3 3 -232z"/></g></svg>