<?xml version="1.0" encoding="UTF-8" standalone="no"?>
<svg
   xmlns:dc="http://purl.org/dc/elements/1.1/"
   xmlns:cc="http://creativecommons.org/ns#"
   xmlns:rdf="http://www.w3.org/1999/02/22-rdf-syntax-ns#"
   xmlns:svg="http://www.w3.org/2000/svg"
   xmlns="http://www.w3.org/2000/svg"
   id="svg8"
   version="1.1"
   viewBox="0 0 4.2937174 4.099459"
   height="15.494018"
   width="16.228224">
  <defs
     id="defs2" />
  <metadata
     id="metadata5">
    <rdf:RDF>
      <cc:Work
         rdf:about="">
        <dc:format>image/svg+xml</dc:format>
        <dc:type
           rdf:resource="http://purl.org/dc/dcmitype/StillImage" />
        <dc:title></dc:title>
      </cc:Work>
    </rdf:RDF>
  </metadata>
  <g
     transform="translate(0.03019221,-292.63483)"
     id="layer1">
    <path
       d="m 2.1166666,292.76712 c 0.1405305,0 0.5082482,1.17758 0.6219398,1.26018 0.1136916,0.0826 1.3472735,0.0684 1.3906998,0.20209 0.043426,0.13365 -0.9628935,0.84726 -1.0063198,0.98091 -0.043426,0.13366 0.3512514,1.30248 0.2375598,1.38508 -0.1136916,0.0826 -1.1033491,-0.65394 -1.2438796,-0.65394 -0.1405306,0 -1.1301882,0.73655 -1.24387977,0.65394 -0.11369157,-0.0826 0.28098627,-1.25142 0.23755997,-1.38508 -0.043426,-0.13365 -1.04974615,-0.84726 -1.00631983,-0.98092 0.0434263,-0.13365 1.27700813,-0.11947 1.39069973,-0.20208 0.1136916,-0.0826 0.4814094,-1.26018 0.6219399,-1.26018 z"
       id="path4491"
       style="opacity:1;fill:#1dbaaf;fill-opacity:0.25098041;stroke:#1dbaaf;stroke-width:0.2651125;stroke-miterlimit:4;stroke-dasharray:none;stroke-opacity:1" />
  </g>
</svg>
