<?xml version="1.0" encoding="UTF-8" standalone="no"?>
<svg
   xmlns:dc="http://purl.org/dc/elements/1.1/"
   xmlns:cc="http://creativecommons.org/ns#"
   xmlns:rdf="http://www.w3.org/1999/02/22-rdf-syntax-ns#"
   xmlns:svg="http://www.w3.org/2000/svg"
   xmlns="http://www.w3.org/2000/svg"
   xml:space="preserve"
   style="enable-background:new 0 0 53 53;"
   viewBox="0 0 53 53"
   y="0px"
   x="0px"
   id="Capa_1"
   version="1.1"><metadata
     id="metadata43"><rdf:RDF><cc:Work
         rdf:about=""><dc:format>image/svg+xml</dc:format><dc:type
           rdf:resource="http://purl.org/dc/dcmitype/StillImage" /><dc:title></dc:title></cc:Work></rdf:RDF></metadata><defs
     id="defs41" /><path
     id="path2"
     d="M11.487,44.641l9.113-3.908c0.494-0.247,0.896-1.045,1.179-1.614c0.255-0.514-0.126-1.119-0.7-1.119  h-6.445c0,0-2.33-0.228-4.127-1c-1.053-0.452-1.415-1.049-0.757-1.986c1.925-2.74,5.904-9.192,6.033-15.855  c0,0,0.221-10.257,10.34-10.34c5.903,0.049,8.691,3.523,9.99,6.41c0.724,1.611,1.035,3.367,1.151,5.129  c0.42,6.351,3.654,12.16,5.161,14.642c0.511,0.842,0.264,1.963-0.581,2.469C40.458,38.298,38.761,38,38.761,38h-6.488  c-0.634,0-0.914,0.886-0.416,1.279c0.406,0.32,0.793,0.609,1.002,0.723l7.58,4.587c1.094,0.597,1.967,1.483,2.561,2.529  C38.451,50.795,32.664,53,26.359,53c-6.574,0-12.585-2.399-17.216-6.363C9.748,45.812,10.537,45.116,11.487,44.641z"
     style="fill:#c6eeeb;fill-opacity:1" /><g
     style="fill:#1dbaaf;fill-opacity:1"
     id="g6"><path
       id="path4"
       d="M26.5,0C11.864,0,0,11.865,0,26.5c0,8.022,3.57,15.206,9.202,20.066   c0.598-0.793,1.364-1.464,2.286-1.925l9.113-3.908c0.494-0.247,0.896-1.045,1.179-1.614c0.255-0.514-0.126-1.119-0.7-1.119h-6.445   c0,0-2.33-0.228-4.127-1c-1.053-0.452-1.415-1.049-0.757-1.986c1.925-2.74,5.904-9.192,6.033-15.855c0,0,0.221-10.257,10.34-10.34   c5.903,0.049,8.691,3.523,9.99,6.41c0.724,1.611,1.035,3.367,1.151,5.129c0.42,6.351,3.654,12.16,5.161,14.642   c0.511,0.842,0.264,1.963-0.581,2.469C40.458,38.298,38.761,38,38.761,38h-6.488c-0.634,0-0.914,0.886-0.416,1.279   c0.406,0.32,0.793,0.609,1.002,0.723l7.58,4.587c1.086,0.592,1.952,1.469,2.545,2.505c0.026,0.025,0.055,0.048,0.08,0.075   C49.117,42.313,53,34.864,53,26.5C53,11.865,41.136,0,26.5,0z"
       style="fill:#1dbaaf;fill-opacity:1" /></g><g
     id="g8" /><g
     id="g10" /><g
     id="g12" /><g
     id="g14" /><g
     id="g16" /><g
     id="g18" /><g
     id="g20" /><g
     id="g22" /><g
     id="g24" /><g
     id="g26" /><g
     id="g28" /><g
     id="g30" /><g
     id="g32" /><g
     id="g34" /><g
     id="g36" /></svg>