<svg xmlns="http://www.w3.org/2000/svg" width="48" height="48" viewBox="0 0 48 48"><defs><style>.a{opacity:0.21;}</style></defs><g class="a"><path d="M14.707,12.707l-1.414-1.414,11-11A1,1,0,0,1,25,0h0a1,1,0,0,1,.708.3l10.875,11L35.164,12.7,25,2.418Z"/><path d="M48,48H0V11H48ZM2,46H46V13H2Z"/><path d="M44,44H4V15H44ZM6,42H42V17H6Z"/><path d="M27.232,43.64c-.335-.4-6.723-8.15-9.232-17-2.509,8.851-8.9,16.6-9.232,17L7.231,42.36C7.329,42.243,17,30.5,17,20a1,1,0,0,1,2,0c0,10.516,9.67,22.243,9.768,22.36Z"/><rect width="10" height="2" transform="translate(13 35)"/><path d="M38,43H36V37H34v6H32V36a1,1,0,0,1,1-1h4a1,1,0,0,1,1,1Z"/><path d="M38,36H36V30a1,1,0,0,1,1-1h6v2H38Z"/></g></svg>