<svg xmlns="http://www.w3.org/2000/svg" width="48" height="48" viewBox="0 0 48 48"><defs><style>.a{opacity:0.21;}</style></defs><g class="a"><path d="M13,48a1,1,0,0,1-1-1V1a1,1,0,0,1,2,0V47A1,1,0,0,1,13,48Z"/><path d="M24,48a1,1,0,0,1-1-1V1a1,1,0,0,1,2,0V47A1,1,0,0,1,24,48Z"/><path d="M35,48a1,1,0,0,1-1-1V1a1,1,0,0,1,2,0V47A1,1,0,0,1,35,48Z"/><path d="M47,14H1a1,1,0,0,1,0-2H47a1,1,0,0,1,0,2Z"/><path d="M47,25H1a1,1,0,0,1,0-2H47a1,1,0,0,1,0,2Z"/><path d="M47,36H1a1,1,0,0,1,0-2H47a1,1,0,0,1,0,2Z"/></g></svg>