<svg xmlns="http://www.w3.org/2000/svg" width="48" height="48" viewBox="0 0 48 48"><defs><style>.a{fill:#1aa79c;}</style></defs><path class="a" d="M48,48H0V0H48ZM2,46H46V2H2Z"/><rect class="a" width="46" height="2" transform="translate(1 34)"/><path class="a" d="M19,18H13a4,4,0,1,1,.352-7.984A5.994,5.994,0,1,1,19,18Zm-6-6a2,2,0,0,0,0,4h6a4,4,0,1,0-3.933-4.633l-.2,1.222-1.153-.448A1.971,1.971,0,0,0,13,12Z"/><path class="a" d="M43.1,35.447,36.032,21.3a2.354,2.354,0,0,0-4.139-.133L25.864,31.5a1,1,0,0,1-.833.5.967.967,0,0,1-.862-.443C24.131,31.5,20.4,26,16,26c-3.546,0-7.029,6.765-8.071,9.372l-1.857-.743C6.507,33.541,10.482,24,16,24c4.015,0,7.336,3.328,8.89,5.2l5.275-9.044a4.355,4.355,0,0,1,7.656.247l7.073,14.146Z"/></svg>