<?xml version="1.0" encoding="UTF-8" standalone="no"?>
<svg
   xmlns:dc="http://purl.org/dc/elements/1.1/"
   xmlns:cc="http://creativecommons.org/ns#"
   xmlns:rdf="http://www.w3.org/1999/02/22-rdf-syntax-ns#"
   xmlns:svg="http://www.w3.org/2000/svg"
   xmlns="http://www.w3.org/2000/svg"
   height="30"
   width="30"
   version="1.1"
   id="Capa_1"
   x="0px"
   y="0px"
   viewBox="0 0 30 30"
   xml:space="preserve"><metadata
     id="metadata55"><rdf:RDF><cc:Work
         rdf:about=""><dc:format>image/svg+xml</dc:format><dc:type
           rdf:resource="http://purl.org/dc/dcmitype/StillImage" /><dc:title></dc:title></cc:Work></rdf:RDF></metadata><defs
     id="defs53" /><g
     transform="scale(0.05859375)"
     id="g6"
     style="fill:#1aa79c;fill-opacity:1"><g
       id="g4"
       style="fill:#1aa79c;fill-opacity:1"><path
         d="M 352,0 H 160 C 71.648,0 0,71.648 0,160 v 192 c 0,88.352 71.648,160 160,160 h 192 c 88.352,0 160,-71.648 160,-160 V 160 C 512,71.648 440.352,0 352,0 Z m 112,352 c 0,61.76 -50.24,112 -112,112 H 160 C 98.24,464 48,413.76 48,352 V 160 C 48,98.24 98.24,48 160,48 h 192 c 61.76,0 112,50.24 112,112 z"
         id="path2"
         style="fill:#1aa79c;fill-opacity:1" /></g></g><g
     transform="scale(0.05859375)"
     id="g12"
     style="fill:#1aa79c;fill-opacity:1"><g
       id="g10"
       style="fill:#1aa79c;fill-opacity:1"><path
         d="m 256,128 c -70.688,0 -128,57.312 -128,128 0,70.688 57.312,128 128,128 70.688,0 128,-57.312 128,-128 0,-70.688 -57.312,-128 -128,-128 z m 0,208 c -44.096,0 -80,-35.904 -80,-80 0,-44.128 35.904,-80 80,-80 44.096,0 80,35.872 80,80 0,44.096 -35.904,80 -80,80 z"
         id="path8"
         style="fill:#1aa79c;fill-opacity:1" /></g></g><g
     transform="scale(0.05859375)"
     id="g18"
     style="fill:#1aa79c;fill-opacity:1"><g
       id="g16"
       style="fill:#1aa79c;fill-opacity:1"><circle
         cx="393.60001"
         cy="118.4"
         r="17.056"
         id="circle14"
         style="fill:#1aa79c;fill-opacity:1" /></g></g><g
     transform="scale(0.05859375)"
     id="g20" /><g
     transform="scale(0.05859375)"
     id="g22" /><g
     transform="scale(0.05859375)"
     id="g24" /><g
     transform="scale(0.05859375)"
     id="g26" /><g
     transform="scale(0.05859375)"
     id="g28" /><g
     transform="scale(0.05859375)"
     id="g30" /><g
     transform="scale(0.05859375)"
     id="g32" /><g
     transform="scale(0.05859375)"
     id="g34" /><g
     transform="scale(0.05859375)"
     id="g36" /><g
     transform="scale(0.05859375)"
     id="g38" /><g
     transform="scale(0.05859375)"
     id="g40" /><g
     transform="scale(0.05859375)"
     id="g42" /><g
     transform="scale(0.05859375)"
     id="g44" /><g
     transform="scale(0.05859375)"
     id="g46" /><g
     transform="scale(0.05859375)"
     id="g48" /></svg>